<svg width="15" height="12" viewBox="0 0 15 12" fill="none" xmlns="http://www.w3.org/2000/svg">
<path d="M14.7226 1.663C14.1919 1.89576 13.6265 2.05004 13.0371 2.12495C13.6435 1.76288 14.1063 1.19391 14.3239 0.508125C13.7585 0.845223 13.1343 1.08333 12.469 1.21621C11.9321 0.644569 11.167 0.290527 10.3323 0.290527C8.71276 0.290527 7.40896 1.60503 7.40896 3.2165C7.40896 3.44837 7.42858 3.67132 7.47673 3.88356C5.04481 3.76496 2.89291 2.59938 1.44732 0.82382C1.19494 1.26169 1.0469 1.76288 1.0469 2.30241C1.0469 3.31549 1.5686 4.21353 2.34624 4.73344C1.87627 4.72453 1.41521 4.58808 1.02461 4.37316C1.02461 4.38208 1.02461 4.39367 1.02461 4.40526C1.02461 5.82678 2.03858 7.00752 3.36824 7.27951C3.13013 7.34462 2.87062 7.37583 2.6013 7.37583C2.41402 7.37583 2.22496 7.36513 2.04749 7.32589C2.4265 8.48433 3.50201 9.33599 4.78084 9.36364C3.7856 10.1422 2.52193 10.6113 1.15392 10.6113C0.914023 10.6113 0.68394 10.6006 0.453857 10.5711C1.74963 11.4067 3.2853 11.8838 4.94136 11.8838C10.3242 11.8838 13.2671 7.42488 13.2671 3.55984C13.2671 3.43053 13.2627 3.30568 13.2564 3.18172C13.837 2.76971 14.3248 2.25515 14.7226 1.663Z" fill="white"/>
</svg>
