<svg width="16" height="15" viewBox="0 0 16 15" fill="none" xmlns="http://www.w3.org/2000/svg">
<path fill-rule="evenodd" clip-rule="evenodd" d="M5.31322 0.290527H10.664C13.1262 0.290527 15.1229 2.28725 15.1229 4.7495V10.1003C15.1229 12.5625 13.1262 14.5592 10.664 14.5592H5.31322C2.85097 14.5592 0.854248 12.5625 0.854248 10.1003V4.7495C0.854248 2.28725 2.85097 0.290527 5.31322 0.290527ZM10.664 13.2217C12.3851 13.2217 13.7853 11.8216 13.7853 10.1004V4.74966C13.7853 3.0285 12.3851 1.62839 10.664 1.62839H5.31322C3.59205 1.62839 2.19194 3.0285 2.19194 4.74966V10.1004C2.19194 11.8216 3.59205 13.2217 5.31322 13.2217H10.664Z" fill="white"/>
<path fill-rule="evenodd" clip-rule="evenodd" d="M4.42133 7.4246C4.42133 5.45462 6.01853 3.85742 7.9885 3.85742C9.95847 3.85742 11.5557 5.45462 11.5557 7.4246C11.5557 9.39457 9.95847 10.9918 7.9885 10.9918C6.01853 10.9918 4.42133 9.39457 4.42133 7.4246ZM5.75907 7.42476C5.75907 8.65366 6.75966 9.65425 7.98856 9.65425C9.21745 9.65425 10.218 8.65366 10.218 7.42476C10.218 6.19498 9.21745 5.19528 7.98856 5.19528C6.75966 5.19528 5.75907 6.19498 5.75907 7.42476Z" fill="white"/>
<circle cx="11.8237" cy="3.59049" r="0.475749" fill="white"/>
</svg>
