<svg width="303" height="38" viewBox="0 0 303 38" fill="none" xmlns="http://www.w3.org/2000/svg">
<rect width="38" height="38" rx="19" fill="#297CFD"/>
<path d="M44.536 27V9.24H52.048C53.248 9.24 54.248 9.456 55.048 9.888C55.848 10.304 56.48 10.912 56.944 11.712C57.424 12.496 57.76 13.432 57.952 14.52C58.144 15.608 58.24 16.808 58.24 18.12C58.24 20.12 58.008 21.776 57.544 23.088C57.096 24.4 56.416 25.384 55.504 26.04C54.592 26.68 53.44 27 52.048 27H44.536ZM48.088 23.808H51.688C52.424 23.808 53.008 23.6 53.44 23.184C53.872 22.752 54.184 22.112 54.376 21.264C54.584 20.416 54.688 19.368 54.688 18.12C54.688 16.968 54.624 16.024 54.496 15.288C54.368 14.536 54.176 13.952 53.92 13.536C53.68 13.12 53.368 12.832 52.984 12.672C52.616 12.512 52.184 12.432 51.688 12.432H48.088V23.808ZM65.6301 27.12C64.2061 27.12 63.0701 26.936 62.2221 26.568C61.3741 26.184 60.7581 25.512 60.3741 24.552C60.0061 23.592 59.8221 22.264 59.8221 20.568C59.8221 18.824 59.9981 17.472 60.3501 16.512C60.7021 15.552 61.2941 14.88 62.1261 14.496C62.9581 14.112 64.0861 13.92 65.5101 13.92C66.7901 13.92 67.8141 14.048 68.5821 14.304C69.3501 14.56 69.9021 15.008 70.2381 15.648C70.5901 16.288 70.7661 17.192 70.7661 18.36C70.7661 19.224 70.5901 19.912 70.2381 20.424C69.9021 20.92 69.4221 21.28 68.7981 21.504C68.1741 21.712 67.4381 21.816 66.5901 21.816H63.3501C63.3821 22.472 63.4781 23 63.6381 23.4C63.8141 23.784 64.1261 24.064 64.5741 24.24C65.0381 24.4 65.7021 24.48 66.5661 24.48H70.3341V26.568C69.7101 26.696 69.0221 26.824 68.2701 26.952C67.5341 27.064 66.6541 27.12 65.6301 27.12ZM63.3021 19.704H66.2301C66.7101 19.704 67.0621 19.608 67.2861 19.416C67.5101 19.224 67.6221 18.88 67.6221 18.384C67.6221 17.92 67.5501 17.552 67.4061 17.28C67.2621 16.992 67.0381 16.792 66.7341 16.68C66.4301 16.552 66.0221 16.488 65.5101 16.488C64.9661 16.488 64.5341 16.584 64.2141 16.776C63.8941 16.952 63.6621 17.272 63.5181 17.736C63.3741 18.2 63.3021 18.856 63.3021 19.704ZM77.5368 27.144C77.1368 27.144 76.7048 27.128 76.2408 27.096C75.7768 27.08 75.3128 27.048 74.8488 27C74.3848 26.952 73.9528 26.896 73.5528 26.832C73.1528 26.752 72.8168 26.664 72.5448 26.568V24.48H78.2568C78.5928 24.48 78.8648 24.456 79.0728 24.408C79.2968 24.344 79.4568 24.24 79.5528 24.096C79.6648 23.936 79.7208 23.712 79.7208 23.424V23.016C79.7208 22.696 79.6168 22.448 79.4088 22.272C79.2008 22.096 78.8168 22.008 78.2568 22.008H76.2408C75.5048 22.008 74.8408 21.896 74.2488 21.672C73.6568 21.448 73.1848 21.08 72.8328 20.568C72.4968 20.056 72.3288 19.368 72.3288 18.504V17.76C72.3288 16.944 72.4888 16.256 72.8088 15.696C73.1288 15.136 73.6648 14.712 74.4168 14.424C75.1688 14.136 76.2008 13.992 77.5128 13.992C78.0408 13.992 78.6008 14.024 79.1928 14.088C79.8008 14.136 80.3688 14.208 80.8968 14.304C81.4408 14.384 81.8728 14.48 82.1928 14.592V16.68H76.7928C76.3288 16.68 75.9768 16.76 75.7368 16.92C75.4968 17.064 75.3768 17.344 75.3768 17.76V18.144C75.3768 18.432 75.4328 18.648 75.5448 18.792C75.6568 18.92 75.8248 19.016 76.0488 19.08C76.2888 19.128 76.5848 19.152 76.9368 19.152H79.0008C80.3128 19.152 81.2648 19.456 81.8568 20.064C82.4648 20.656 82.7688 21.48 82.7688 22.536V23.688C82.7688 24.552 82.5608 25.24 82.1448 25.752C81.7448 26.248 81.1528 26.608 80.3688 26.832C79.6008 27.04 78.6568 27.144 77.5368 27.144ZM89.7499 27.144C88.9659 27.144 88.2379 27.04 87.5659 26.832C86.9099 26.624 86.3419 26.28 85.8619 25.8C85.3819 25.304 85.0059 24.64 84.7339 23.808C84.4779 22.96 84.3499 21.896 84.3499 20.616C84.3499 19.304 84.4699 18.216 84.7099 17.352C84.9499 16.488 85.3019 15.808 85.7659 15.312C86.2459 14.8 86.8299 14.44 87.5179 14.232C88.2059 14.024 88.9819 13.92 89.8459 13.92C90.6299 13.92 91.3739 13.968 92.0779 14.064C92.7979 14.144 93.5499 14.296 94.3339 14.52V16.56H90.9499C90.2139 16.56 89.6219 16.672 89.1739 16.896C88.7259 17.104 88.3979 17.504 88.1899 18.096C87.9979 18.672 87.9019 19.504 87.9019 20.592C87.9019 21.664 87.9979 22.48 88.1899 23.04C88.3979 23.6 88.7259 23.976 89.1739 24.168C89.6379 24.36 90.2459 24.456 90.9979 24.456H94.5259V26.472C94.1259 26.6 93.6619 26.72 93.1339 26.832C92.6059 26.928 92.0459 27 91.4539 27.048C90.8779 27.112 90.3099 27.144 89.7499 27.144ZM101.78 27.12C100.724 27.12 99.8196 27.016 99.0676 26.808C98.3156 26.584 97.6996 26.216 97.2196 25.704C96.7556 25.192 96.4116 24.512 96.1876 23.664C95.9796 22.816 95.8756 21.768 95.8756 20.52C95.8756 19.208 95.9796 18.128 96.1876 17.28C96.4116 16.416 96.7556 15.744 97.2196 15.264C97.6996 14.768 98.3156 14.424 99.0676 14.232C99.8356 14.024 100.74 13.92 101.78 13.92C102.852 13.92 103.764 14.024 104.516 14.232C105.268 14.44 105.876 14.792 106.34 15.288C106.82 15.768 107.164 16.44 107.372 17.304C107.596 18.152 107.708 19.224 107.708 20.52C107.708 21.8 107.604 22.872 107.396 23.736C107.188 24.584 106.852 25.256 106.388 25.752C105.924 26.248 105.308 26.6 104.54 26.808C103.788 27.016 102.868 27.12 101.78 27.12ZM101.78 24.288C102.212 24.288 102.572 24.248 102.86 24.168C103.164 24.088 103.404 23.928 103.58 23.688C103.772 23.432 103.916 23.048 104.012 22.536C104.108 22.024 104.156 21.352 104.156 20.52C104.156 19.672 104.108 19 104.012 18.504C103.916 17.992 103.772 17.616 103.58 17.376C103.404 17.12 103.164 16.952 102.86 16.872C102.572 16.792 102.212 16.752 101.78 16.752C101.364 16.752 101.004 16.792 100.7 16.872C100.412 16.952 100.172 17.12 99.9796 17.376C99.7876 17.616 99.6436 17.992 99.5476 18.504C99.4676 19 99.4276 19.672 99.4276 20.52C99.4276 21.352 99.4676 22.024 99.5476 22.536C99.6436 23.048 99.7876 23.432 99.9796 23.688C100.172 23.928 100.412 24.088 100.7 24.168C101.004 24.248 101.364 24.288 101.78 24.288ZM109.824 27V14.112H112.752L113.376 15.432C113.936 15.016 114.544 14.656 115.2 14.352C115.872 14.048 116.696 13.896 117.672 13.896C118.488 13.896 119.16 14.064 119.688 14.4C120.232 14.736 120.64 15.176 120.912 15.72C121.28 15.432 121.704 15.152 122.184 14.88C122.68 14.608 123.208 14.376 123.768 14.184C124.328 13.992 124.88 13.896 125.424 13.896C126.464 13.896 127.28 14.096 127.872 14.496C128.48 14.88 128.904 15.432 129.144 16.152C129.384 16.856 129.504 17.688 129.504 18.648V27H125.952V18.96C125.952 18.544 125.872 18.2 125.712 17.928C125.568 17.656 125.36 17.448 125.088 17.304C124.816 17.16 124.488 17.088 124.104 17.088C123.624 17.088 123.136 17.192 122.64 17.4C122.16 17.592 121.728 17.824 121.344 18.096C121.376 18.256 121.4 18.416 121.416 18.576C121.432 18.72 121.44 18.872 121.44 19.032V27H117.888V18.96C117.888 18.544 117.808 18.2 117.648 17.928C117.504 17.656 117.296 17.448 117.024 17.304C116.752 17.16 116.424 17.088 116.04 17.088C115.704 17.088 115.376 17.128 115.056 17.208C114.752 17.288 114.456 17.4 114.168 17.544C113.896 17.688 113.632 17.856 113.376 18.048V27H109.824ZM131.92 32.688V14.112H134.896L135.472 15.336C135.776 15.096 136.112 14.872 136.48 14.664C136.848 14.44 137.248 14.264 137.68 14.136C138.112 13.992 138.568 13.92 139.048 13.92C139.832 13.92 140.512 14.072 141.088 14.376C141.68 14.68 142.16 15.12 142.528 15.696C142.896 16.272 143.168 16.976 143.344 17.808C143.52 18.624 143.608 19.544 143.608 20.568C143.608 21.944 143.472 23.128 143.2 24.12C142.928 25.112 142.456 25.872 141.784 26.4C141.128 26.912 140.216 27.168 139.048 27.168C138.44 27.168 137.816 27.096 137.176 26.952C136.552 26.808 135.984 26.6 135.472 26.328V32.688H131.92ZM137.896 24.24C138.264 24.24 138.616 24.144 138.952 23.952C139.288 23.744 139.552 23.376 139.744 22.848C139.952 22.32 140.056 21.56 140.056 20.568C140.056 19.608 139.96 18.856 139.768 18.312C139.592 17.752 139.344 17.36 139.024 17.136C138.704 16.896 138.328 16.776 137.896 16.776C137.4 16.776 136.944 16.856 136.528 17.016C136.112 17.176 135.76 17.336 135.472 17.496V23.616C135.792 23.808 136.168 23.96 136.6 24.072C137.032 24.184 137.464 24.24 137.896 24.24ZM149.751 27.048C148.839 27.048 148.079 26.904 147.471 26.616C146.879 26.312 146.439 25.856 146.151 25.248C145.863 24.624 145.719 23.824 145.719 22.848V8.688H149.271V22.32C149.271 22.8 149.319 23.184 149.415 23.472C149.511 23.744 149.655 23.944 149.847 24.072C150.055 24.2 150.311 24.288 150.615 24.336L151.599 24.48V27.048H149.751ZM153.435 12.216C153.099 12.216 152.931 12.056 152.931 11.736V9.384C152.931 9.048 153.099 8.88 153.435 8.88H156.171C156.315 8.88 156.427 8.928 156.507 9.024C156.587 9.12 156.627 9.24 156.627 9.384V11.736C156.627 12.056 156.475 12.216 156.171 12.216H153.435ZM153.003 27V14.112H156.555V27H153.003ZM166.868 27L157.892 14.112H161.468L170.468 27H166.868ZM157.892 27L162.86 19.44L164.156 22.776L161.492 27H157.892ZM165.476 21.72L163.964 18.744L166.868 14.112H170.468L165.476 21.72ZM178.168 12.216C177.832 12.216 177.664 12.056 177.664 11.736V9.384C177.664 9.048 177.832 8.88 178.168 8.88H180.904C181.048 8.88 181.16 8.928 181.24 9.024C181.32 9.12 181.36 9.24 181.36 9.384V11.736C181.36 12.056 181.208 12.216 180.904 12.216H178.168ZM177.736 27V14.112H181.288V27H177.736ZM183.777 27V14.112H186.705L187.329 15.432C187.809 15.032 188.409 14.68 189.129 14.376C189.865 14.056 190.617 13.896 191.385 13.896C192.441 13.896 193.257 14.104 193.833 14.52C194.409 14.936 194.809 15.496 195.033 16.2C195.273 16.888 195.393 17.656 195.393 18.504V27H191.841V18.96C191.841 18.544 191.761 18.2 191.601 17.928C191.457 17.656 191.249 17.448 190.977 17.304C190.705 17.16 190.377 17.088 189.993 17.088C189.657 17.088 189.329 17.128 189.009 17.208C188.705 17.288 188.409 17.4 188.121 17.544C187.849 17.688 187.585 17.856 187.329 18.048V27H183.777ZM202.707 27C201.715 27 200.907 26.856 200.283 26.568C199.675 26.28 199.235 25.8 198.963 25.128C198.691 24.456 198.571 23.552 198.603 22.416L198.723 16.968H196.707V14.688L198.843 14.112L199.323 10.512H202.131V14.112H205.155V16.968H202.131V22.392C202.131 22.744 202.163 23.032 202.227 23.256C202.291 23.48 202.379 23.664 202.491 23.808C202.619 23.936 202.763 24.032 202.923 24.096C203.083 24.16 203.243 24.2 203.403 24.216L205.035 24.36V27H202.707ZM212.323 27.12C210.899 27.12 209.763 26.936 208.915 26.568C208.067 26.184 207.451 25.512 207.067 24.552C206.699 23.592 206.515 22.264 206.515 20.568C206.515 18.824 206.691 17.472 207.043 16.512C207.395 15.552 207.987 14.88 208.819 14.496C209.651 14.112 210.779 13.92 212.203 13.92C213.483 13.92 214.507 14.048 215.275 14.304C216.043 14.56 216.595 15.008 216.931 15.648C217.283 16.288 217.459 17.192 217.459 18.36C217.459 19.224 217.283 19.912 216.931 20.424C216.595 20.92 216.115 21.28 215.491 21.504C214.867 21.712 214.131 21.816 213.283 21.816H210.043C210.075 22.472 210.171 23 210.331 23.4C210.507 23.784 210.819 24.064 211.267 24.24C211.731 24.4 212.395 24.48 213.259 24.48H217.027V26.568C216.403 26.696 215.715 26.824 214.963 26.952C214.227 27.064 213.347 27.12 212.323 27.12ZM209.995 19.704H212.923C213.403 19.704 213.755 19.608 213.979 19.416C214.203 19.224 214.315 18.88 214.315 18.384C214.315 17.92 214.243 17.552 214.099 17.28C213.955 16.992 213.731 16.792 213.427 16.68C213.123 16.552 212.715 16.488 212.203 16.488C211.659 16.488 211.227 16.584 210.907 16.776C210.587 16.952 210.355 17.272 210.211 17.736C210.067 18.2 209.995 18.856 209.995 19.704ZM223.581 27.048C222.669 27.048 221.909 26.904 221.301 26.616C220.709 26.312 220.269 25.856 219.981 25.248C219.693 24.624 219.549 23.824 219.549 22.848V8.688H223.101V22.32C223.101 22.8 223.149 23.184 223.245 23.472C223.341 23.744 223.485 23.944 223.677 24.072C223.885 24.2 224.141 24.288 224.445 24.336L225.429 24.48V27.048H223.581ZM227.265 12.216C226.929 12.216 226.761 12.056 226.761 11.736V9.384C226.761 9.048 226.929 8.88 227.265 8.88H230.001C230.145 8.88 230.257 8.928 230.337 9.024C230.417 9.12 230.457 9.24 230.457 9.384V11.736C230.457 12.056 230.305 12.216 230.001 12.216H227.265ZM226.833 27V14.112H230.385V27H226.833ZM236.21 32.952C235.394 32.952 234.666 32.832 234.026 32.592C233.402 32.352 232.906 32 232.538 31.536C232.17 31.088 231.986 30.528 231.986 29.856V29.472C231.986 28.784 232.178 28.192 232.562 27.696C232.962 27.216 233.474 26.848 234.098 26.592C234.722 26.336 235.386 26.208 236.09 26.208L237.146 27.312C236.794 27.312 236.482 27.368 236.21 27.48C235.938 27.592 235.722 27.752 235.562 27.96C235.418 28.184 235.346 28.456 235.346 28.776V29.04C235.346 29.504 235.506 29.856 235.826 30.096C236.146 30.336 236.602 30.456 237.194 30.456H239.642C240.234 30.456 240.706 30.336 241.058 30.096C241.426 29.872 241.61 29.528 241.61 29.064V28.68C241.61 28.392 241.538 28.144 241.394 27.936C241.266 27.744 241.066 27.592 240.794 27.48C240.538 27.368 240.186 27.312 239.738 27.312H236.882C235.442 27.312 234.37 27.048 233.666 26.52C232.978 25.976 232.634 25.312 232.634 24.528C232.634 23.872 232.818 23.328 233.186 22.896C233.57 22.448 234.098 22.152 234.77 22.008C234.258 21.736 233.85 21.408 233.546 21.024C233.242 20.624 233.026 20.2 232.898 19.752C232.77 19.288 232.706 18.808 232.706 18.312C232.706 17.368 232.898 16.584 233.282 15.96C233.682 15.336 234.274 14.872 235.058 14.568C235.858 14.264 236.858 14.112 238.058 14.112H245.042V16.056L243.074 16.416C243.218 16.576 243.362 16.768 243.506 16.992C243.65 17.2 243.77 17.48 243.866 17.832C243.978 18.168 244.034 18.592 244.034 19.104C244.034 19.84 243.874 20.504 243.554 21.096C243.25 21.688 242.754 22.16 242.066 22.512C241.394 22.864 240.498 23.04 239.378 23.04H237.098C236.666 23.04 236.314 23.104 236.042 23.232C235.77 23.36 235.634 23.592 235.634 23.928C235.634 24.2 235.746 24.392 235.97 24.504C236.21 24.6 236.474 24.648 236.762 24.648H240.314C241.306 24.648 242.146 24.776 242.834 25.032C243.522 25.288 244.05 25.704 244.418 26.28C244.786 26.84 244.97 27.584 244.97 28.512V28.872C244.97 30.136 244.57 31.128 243.77 31.848C242.97 32.584 241.738 32.952 240.074 32.952H236.21ZM237.602 20.376H238.97C239.466 20.376 239.842 20.304 240.098 20.16C240.37 20 240.554 19.792 240.65 19.536C240.762 19.264 240.818 18.952 240.818 18.6C240.818 18.152 240.746 17.792 240.602 17.52C240.474 17.248 240.282 17.056 240.026 16.944C239.77 16.832 239.45 16.776 239.066 16.776H237.722C237.114 16.776 236.658 16.912 236.354 17.184C236.05 17.44 235.898 17.896 235.898 18.552C235.898 19.176 236.042 19.64 236.33 19.944C236.618 20.232 237.042 20.376 237.602 20.376ZM252.027 27.12C250.603 27.12 249.467 26.936 248.619 26.568C247.771 26.184 247.155 25.512 246.771 24.552C246.403 23.592 246.219 22.264 246.219 20.568C246.219 18.824 246.395 17.472 246.747 16.512C247.099 15.552 247.691 14.88 248.523 14.496C249.355 14.112 250.483 13.92 251.907 13.92C253.187 13.92 254.211 14.048 254.979 14.304C255.747 14.56 256.299 15.008 256.635 15.648C256.987 16.288 257.163 17.192 257.163 18.36C257.163 19.224 256.987 19.912 256.635 20.424C256.299 20.92 255.819 21.28 255.195 21.504C254.571 21.712 253.835 21.816 252.987 21.816H249.747C249.779 22.472 249.875 23 250.035 23.4C250.211 23.784 250.523 24.064 250.971 24.24C251.435 24.4 252.099 24.48 252.963 24.48H256.731V26.568C256.107 26.696 255.419 26.824 254.667 26.952C253.931 27.064 253.051 27.12 252.027 27.12ZM249.699 19.704H252.627C253.107 19.704 253.459 19.608 253.683 19.416C253.907 19.224 254.019 18.88 254.019 18.384C254.019 17.92 253.947 17.552 253.803 17.28C253.659 16.992 253.435 16.792 253.131 16.68C252.827 16.552 252.419 16.488 251.907 16.488C251.363 16.488 250.931 16.584 250.611 16.776C250.291 16.952 250.059 17.272 249.915 17.736C249.771 18.2 249.699 18.856 249.699 19.704ZM247.971 11.856L250.563 8.448H253.011L255.363 11.856H253.299L251.715 10.032L250.035 11.856H247.971ZM259.253 27V14.112H262.181L262.805 15.432C263.285 15.032 263.885 14.68 264.605 14.376C265.341 14.056 266.093 13.896 266.861 13.896C267.917 13.896 268.733 14.104 269.309 14.52C269.885 14.936 270.285 15.496 270.509 16.2C270.749 16.888 270.869 17.656 270.869 18.504V27H267.317V18.96C267.317 18.544 267.237 18.2 267.077 17.928C266.933 17.656 266.725 17.448 266.453 17.304C266.181 17.16 265.853 17.088 265.469 17.088C265.133 17.088 264.805 17.128 264.485 17.208C264.181 17.288 263.885 17.4 263.597 17.544C263.325 17.688 263.061 17.856 262.805 18.048V27H259.253ZM278.303 27.144C277.519 27.144 276.791 27.04 276.119 26.832C275.463 26.624 274.895 26.28 274.415 25.8C273.935 25.304 273.559 24.64 273.287 23.808C273.031 22.96 272.903 21.896 272.903 20.616C272.903 19.304 273.023 18.216 273.263 17.352C273.503 16.488 273.855 15.808 274.319 15.312C274.799 14.8 275.383 14.44 276.071 14.232C276.759 14.024 277.535 13.92 278.399 13.92C279.183 13.92 279.927 13.968 280.631 14.064C281.351 14.144 282.103 14.296 282.887 14.52V16.56H279.503C278.767 16.56 278.175 16.672 277.727 16.896C277.279 17.104 276.951 17.504 276.743 18.096C276.551 18.672 276.455 19.504 276.455 20.592C276.455 21.664 276.551 22.48 276.743 23.04C276.951 23.6 277.279 23.976 277.727 24.168C278.191 24.36 278.799 24.456 279.551 24.456H283.079V26.472C282.679 26.6 282.215 26.72 281.687 26.832C281.159 26.928 280.599 27 280.007 27.048C279.431 27.112 278.863 27.144 278.303 27.144ZM285.244 12.216C284.908 12.216 284.74 12.056 284.74 11.736V9.384C284.74 9.048 284.908 8.88 285.244 8.88H287.98C288.124 8.88 288.236 8.928 288.316 9.024C288.396 9.12 288.436 9.24 288.436 9.384V11.736C288.436 12.056 288.284 12.216 287.98 12.216H285.244ZM284.812 27V14.112H288.364V27H284.812ZM293.59 27.144C292.614 27.144 291.822 26.856 291.214 26.28C290.606 25.704 290.302 24.904 290.302 23.88V22.728C290.302 21.752 290.646 20.952 291.334 20.328C292.022 19.688 293.094 19.368 294.55 19.368H297.838V18.48C297.838 18.08 297.766 17.752 297.622 17.496C297.478 17.224 297.206 17.032 296.806 16.92C296.422 16.792 295.83 16.728 295.03 16.728H291.166V14.664C291.79 14.472 292.51 14.304 293.326 14.16C294.158 14.016 295.158 13.944 296.326 13.944C297.398 13.944 298.31 14.072 299.062 14.328C299.83 14.584 300.406 15.024 300.79 15.648C301.19 16.272 301.39 17.136 301.39 18.24V27H298.582L298.006 25.632C297.894 25.76 297.702 25.904 297.43 26.064C297.158 26.224 296.822 26.392 296.422 26.568C296.038 26.728 295.598 26.864 295.102 26.976C294.622 27.088 294.118 27.144 293.59 27.144ZM295.39 24.672C295.55 24.672 295.726 24.656 295.918 24.624C296.126 24.576 296.334 24.528 296.542 24.48C296.766 24.416 296.966 24.36 297.142 24.312C297.334 24.248 297.486 24.192 297.598 24.144C297.726 24.096 297.806 24.064 297.838 24.048V21.048L295.678 21.192C295.054 21.24 294.59 21.4 294.286 21.672C293.998 21.944 293.854 22.312 293.854 22.776V23.304C293.854 23.624 293.918 23.888 294.046 24.096C294.19 24.304 294.374 24.456 294.598 24.552C294.838 24.632 295.102 24.672 295.39 24.672Z" fill="#381F6E"/>
<rect x="5" y="18" width="7.32858" height="9.28571" rx="3.66429" fill="#46F8A3"/>
<rect x="24.6715" y="7" width="7.32858" height="20.0571" rx="3.66429" fill="#46F8A3"/>
<path d="M14 16.6643C14 14.6406 15.6406 13 17.6643 13V13C19.688 13 21.3286 14.6406 21.3286 16.6643V23.0786C21.3286 25.1023 19.688 26.7429 17.6643 26.7429V26.7429C15.6406 26.7429 14 25.1023 14 23.0786V16.6643Z" fill="white"/>
</svg>
