<svg width="84" height="60" viewBox="0 0 84 60" fill="none" xmlns="http://www.w3.org/2000/svg">
<rect x="15.25" y="2.5" width="66" height="46" rx="4" stroke="#E9E9E9" stroke-width="4"/>
<rect x="0.75" y="9.5" width="70" height="50" rx="6" fill="#E9E9E9"/>
<path d="M35.3558 50.4178C34.7623 50.4178 34.2609 50.2085 33.8516 49.7899C33.4423 49.3714 33.2376 48.8481 33.2376 48.2203V45.8972L34.1586 46.7448C32.7874 46.682 31.6004 46.5041 30.5976 46.2111C29.5947 45.9181 28.7761 45.6251 28.1417 45.3321C27.6096 45.0809 27.2309 44.7252 27.0058 44.2647C26.8012 43.8043 26.7193 43.3334 26.7602 42.852C26.8216 42.3707 26.9956 41.9312 27.2821 41.5335C27.5686 41.1359 27.937 40.8742 28.3873 40.7487C28.858 40.6022 29.4003 40.665 30.0143 40.937C30.4236 41.1673 31.0376 41.4079 31.8562 41.6591C32.6953 41.8893 33.7288 42.0044 34.9568 42.0044C35.8163 42.0044 36.4917 41.9207 36.9829 41.7533C37.4945 41.5858 37.8527 41.3661 38.0573 41.094C38.2824 40.801 38.395 40.4871 38.395 40.1522C38.395 39.8383 38.3131 39.5767 38.1494 39.3674C38.0062 39.1372 37.7606 38.9383 37.4126 38.7709C37.0647 38.5825 36.5838 38.4151 35.9698 38.2686L32.5009 37.5152C30.5976 37.0757 29.1752 36.3431 28.2338 35.3176C27.3128 34.2712 26.8523 32.9213 26.8523 31.2679C26.8523 30.0122 27.1491 28.8925 27.7426 27.9088C28.3566 26.9042 29.2059 26.088 30.2906 25.4601C31.3957 24.8323 32.6851 24.4346 34.1586 24.2672L33.2376 24.8009V22.6975C33.2376 22.0697 33.4423 21.5464 33.8516 21.1279C34.2609 20.7093 34.7623 20.5 35.3558 20.5C35.9698 20.5 36.4815 20.7093 36.8908 21.1279C37.3001 21.5464 37.5047 22.0697 37.5047 22.6975V24.8009L36.5838 24.2044C37.3615 24.2253 38.2006 24.3614 39.1011 24.6125C40.0016 24.8427 40.7895 25.1671 41.4649 25.5857C41.9356 25.8369 42.263 26.1822 42.4472 26.6217C42.6519 27.0612 42.7235 27.5112 42.6621 27.9716C42.6212 28.4111 42.4574 28.8088 42.1709 29.1645C41.9049 29.5203 41.5365 29.761 41.0658 29.8866C40.6155 29.9912 40.0732 29.9075 39.4388 29.6354C38.968 29.4262 38.4359 29.2587 37.8424 29.1332C37.2694 28.9867 36.5326 28.9134 35.6321 28.9134C34.5474 28.9134 33.7083 29.1122 33.1148 29.5099C32.5418 29.9075 32.2553 30.4203 32.2553 31.0481C32.2553 31.4667 32.419 31.8225 32.7465 32.1155C33.0944 32.3876 33.7186 32.6283 34.6191 32.8376L38.1187 33.6224C40.063 34.0619 41.4956 34.7944 42.4165 35.8199C43.3579 36.8245 43.8287 38.1326 43.8287 39.7441C43.8287 40.9998 43.5319 42.109 42.9384 43.0718C42.3449 44.0345 41.516 44.8193 40.4518 45.4263C39.4081 46.0332 38.1903 46.4309 36.7987 46.6192L37.5047 45.8658V48.2203C37.5047 48.8481 37.3001 49.3714 36.8908 49.7899C36.5019 50.2085 35.9903 50.4178 35.3558 50.4178Z" fill="#A5FFE4"/>
</svg>
