<svg width="74" height="74" viewBox="0 0 74 74" fill="none" xmlns="http://www.w3.org/2000/svg">
<mask id="path-1-inside-1_311_97" fill="white">
<path d="M66.5 38.5C68.7091 38.5 70.5236 40.2967 70.2717 42.4914C69.6392 48.0011 67.7037 53.302 64.6014 57.945C60.7556 63.7007 55.2893 68.1867 48.8939 70.8358C42.4985 73.4849 35.4612 74.178 28.6718 72.8275C21.8825 71.477 15.6461 68.1436 10.7513 63.2487C5.85642 58.3539 2.523 52.1175 1.17252 45.3282C-0.177968 38.5388 0.515149 31.5015 3.16422 25.1061C5.81328 18.7107 10.2993 13.2444 16.055 9.39856C20.698 6.29625 25.9989 4.36075 31.5086 3.72831C33.7033 3.47638 35.5 5.29086 35.5 7.5L35.5 34.5C35.5 36.7091 37.2909 38.5 39.5 38.5H66.5Z"/>
</mask>
<path d="M66.5 38.5C68.7091 38.5 70.5236 40.2967 70.2717 42.4914C69.6392 48.0011 67.7037 53.302 64.6014 57.945C60.7556 63.7007 55.2893 68.1867 48.8939 70.8358C42.4985 73.4849 35.4612 74.178 28.6718 72.8275C21.8825 71.477 15.6461 68.1436 10.7513 63.2487C5.85642 58.3539 2.523 52.1175 1.17252 45.3282C-0.177968 38.5388 0.515149 31.5015 3.16422 25.1061C5.81328 18.7107 10.2993 13.2444 16.055 9.39856C20.698 6.29625 25.9989 4.36075 31.5086 3.72831C33.7033 3.47638 35.5 5.29086 35.5 7.5L35.5 34.5C35.5 36.7091 37.2909 38.5 39.5 38.5H66.5Z" stroke="url(#paint0_linear_311_97)" stroke-width="8" mask="url(#path-1-inside-1_311_97)"/>
<mask id="path-2-inside-2_311_97" fill="white">
<path d="M38.5 4.5C38.5 2.29086 40.2966 0.476396 42.4913 0.728323C45.7171 1.0986 48.8822 1.91671 51.8939 3.16421C56.1403 4.92313 59.9987 7.50121 63.2487 10.7513C66.4988 14.0013 69.0769 17.8597 70.8358 22.1061C72.0833 25.1178 72.9014 28.2829 73.2717 31.5087C73.5236 33.7034 71.7091 35.5 69.5 35.5L42.5 35.5C40.2909 35.5 38.5 33.7091 38.5 31.5L38.5 4.5Z"/>
</mask>
<path d="M38.5 4.5C38.5 2.29086 40.2966 0.476396 42.4913 0.728323C45.7171 1.0986 48.8822 1.91671 51.8939 3.16421C56.1403 4.92313 59.9987 7.50121 63.2487 10.7513C66.4988 14.0013 69.0769 17.8597 70.8358 22.1061C72.0833 25.1178 72.9014 28.2829 73.2717 31.5087C73.5236 33.7034 71.7091 35.5 69.5 35.5L42.5 35.5C40.2909 35.5 38.5 33.7091 38.5 31.5L38.5 4.5Z" fill="url(#paint1_linear_311_97)" stroke="url(#paint2_linear_311_97)" stroke-width="8" mask="url(#path-2-inside-2_311_97)"/>
<defs>
<linearGradient id="paint0_linear_311_97" x1="35.5" y1="3.5" x2="35.5" y2="73.5" gradientUnits="userSpaceOnUse">
<stop stop-color="#46F8A3"/>
<stop offset="1" stop-color="#46F8A3" stop-opacity="0"/>
</linearGradient>
<linearGradient id="paint1_linear_311_97" x1="74" y1="-10" x2="73.5" y2="35.5" gradientUnits="userSpaceOnUse">
<stop stop-color="#46F8A3"/>
<stop offset="1" stop-color="#46F8A3" stop-opacity="0"/>
</linearGradient>
<linearGradient id="paint2_linear_311_97" x1="3.5" y1="35.5" x2="73.5" y2="35.5" gradientUnits="userSpaceOnUse">
<stop stop-color="#46F8A3"/>
<stop offset="1" stop-color="#46F8A3" stop-opacity="0"/>
</linearGradient>
</defs>
</svg>
