<svg width="135" height="20" viewBox="0 0 135 20" fill="none" xmlns="http://www.w3.org/2000/svg">
<path d="M42.8309 4.07277L39.9824 15H36.7602L35.0169 7.80857L33.2112 15H29.9891L27.2184 4.07277H30.0669L31.6391 12.0269L33.5848 4.07277H36.5112L38.3791 12.0269L39.9668 4.07277H42.8309Z" fill="#583FBC"/>
<path d="M43.3253 10.6416C43.3253 9.74912 43.4913 8.96564 43.8234 8.29112C44.1658 7.6166 44.6276 7.09773 45.2087 6.73453C45.7899 6.37133 46.4384 6.18973 47.1545 6.18973C47.7667 6.18973 48.3011 6.31425 48.7577 6.56331C49.2247 6.81236 49.5827 7.13924 49.8318 7.54395V6.31425H52.4935V15H49.8318V13.7703C49.5724 14.175 49.2092 14.5019 48.7422 14.7509C48.2856 15 47.7512 15.1245 47.1389 15.1245C46.4332 15.1245 45.7899 14.9429 45.2087 14.5797C44.6276 14.2061 44.1658 13.6821 43.8234 13.0076C43.4913 12.3227 43.3253 11.534 43.3253 10.6416ZM49.8318 10.6571C49.8318 9.99298 49.645 9.46893 49.2714 9.08497C48.9082 8.70102 48.462 8.50904 47.9328 8.50904C47.4035 8.50904 46.9521 8.70102 46.5785 9.08497C46.2153 9.45856 46.0337 9.97742 46.0337 10.6416C46.0337 11.3057 46.2153 11.8349 46.5785 12.2293C46.9521 12.6132 47.4035 12.8052 47.9328 12.8052C48.462 12.8052 48.9082 12.6132 49.2714 12.2293C49.645 11.8453 49.8318 11.3213 49.8318 10.6571ZM57.4079 6.18973C58.0201 6.18973 58.5545 6.31425 59.0111 6.56331C59.4781 6.81236 59.8361 7.13924 60.0852 7.54395V6.31425H62.7469V14.9844C62.7469 15.7835 62.5861 16.5047 62.2644 17.1481C61.9531 17.8019 61.4705 18.3207 60.8168 18.7047C60.1734 19.0886 59.3692 19.2806 58.4041 19.2806C57.1173 19.2806 56.0744 18.9745 55.2753 18.3622C54.4763 17.7603 54.0197 16.9405 53.9055 15.9028H56.5362C56.6192 16.2349 56.8164 16.4943 57.1277 16.6811C57.439 16.8783 57.8229 16.9769 58.2795 16.9769C58.8295 16.9769 59.2654 16.816 59.5871 16.4943C59.9192 16.183 60.0852 15.6797 60.0852 14.9844V13.7547C59.8258 14.1594 59.4677 14.4915 59.0111 14.7509C58.5545 15 58.0201 15.1245 57.4079 15.1245C56.6918 15.1245 56.0433 14.9429 55.4621 14.5797C54.881 14.2061 54.4192 13.6821 54.0768 13.0076C53.7447 12.3227 53.5787 11.534 53.5787 10.6416C53.5787 9.74912 53.7447 8.96564 54.0768 8.29112C54.4192 7.6166 54.881 7.09773 55.4621 6.73453C56.0433 6.37133 56.6918 6.18973 57.4079 6.18973ZM60.0852 10.6571C60.0852 9.99298 59.8984 9.46893 59.5248 9.08497C59.1616 8.70102 58.7154 8.50904 58.1862 8.50904C57.6569 8.50904 57.2055 8.70102 56.8319 9.08497C56.4687 9.45856 56.2871 9.97742 56.2871 10.6416C56.2871 11.3057 56.4687 11.8349 56.8319 12.2293C57.2055 12.6132 57.6569 12.8052 58.1862 12.8052C58.7154 12.8052 59.1616 12.6132 59.5248 12.2293C59.8984 11.8453 60.0852 11.3213 60.0852 10.6571ZM69.6537 6.22086C70.6707 6.22086 71.4801 6.55293 72.082 7.21707C72.6942 7.87084 73.0003 8.77366 73.0003 9.92553V15H70.3542V10.2835C70.3542 9.70242 70.2037 9.25101 69.9027 8.92932C69.6018 8.60762 69.1971 8.44677 68.6886 8.44677C68.1801 8.44677 67.7754 8.60762 67.4745 8.92932C67.1735 9.25101 67.0231 9.70242 67.0231 10.2835V15H64.3613V6.31425H67.0231V7.46613C67.2929 7.08217 67.6561 6.78123 68.1127 6.56331C68.5693 6.33501 69.0829 6.22086 69.6537 6.22086ZM82.7263 10.517C82.7263 10.7661 82.7108 11.0255 82.6796 11.2953H76.6556C76.6972 11.8349 76.8684 12.25 77.1693 12.5406C77.4806 12.8208 77.8594 12.9609 78.3056 12.9609C78.9698 12.9609 79.4316 12.6807 79.691 12.1203H82.524C82.3787 12.6911 82.1141 13.2047 81.7301 13.6613C81.3565 14.1179 80.8844 14.4759 80.3136 14.7354C79.7429 14.9948 79.1047 15.1245 78.399 15.1245C77.5481 15.1245 76.7906 14.9429 76.1264 14.5797C75.4623 14.2165 74.9434 13.6977 74.5698 13.0231C74.1962 12.3486 74.0095 11.5599 74.0095 10.6571C74.0095 9.75431 74.1911 8.96564 74.5543 8.29112C74.9278 7.6166 75.4467 7.09773 76.1108 6.73453C76.775 6.37133 77.5377 6.18973 78.399 6.18973C79.2396 6.18973 79.9867 6.36614 80.6405 6.71897C81.2943 7.07179 81.8028 7.57509 82.166 8.22885C82.5395 8.88262 82.7263 9.64535 82.7263 10.517ZM80.0023 9.81657C80.0023 9.35997 79.8466 8.99677 79.5353 8.72696C79.224 8.45715 78.8349 8.32225 78.3679 8.32225C77.9217 8.32225 77.5429 8.45196 77.2316 8.71139C76.9306 8.97083 76.7439 9.33922 76.6712 9.81657H80.0023ZM86.481 7.76188C86.7923 7.28452 87.1814 6.91094 87.6484 6.64114C88.1154 6.36095 88.6343 6.22086 89.205 6.22086V9.03828H88.4734C87.8093 9.03828 87.3112 9.18356 86.9791 9.47412C86.647 9.75431 86.481 10.2524 86.481 10.9684V15H83.8192V6.31425H86.481V7.76188ZM96.7878 15.109C95.9887 15.109 95.2727 14.9792 94.6397 14.7198C94.0067 14.4604 93.4982 14.0764 93.1142 13.5679C92.7406 13.0595 92.5435 12.4472 92.5227 11.7312H95.3557C95.3972 12.1359 95.5373 12.4472 95.776 12.6651C96.0147 12.8727 96.326 12.9764 96.7099 12.9764C97.1043 12.9764 97.4156 12.8882 97.6439 12.7118C97.8722 12.525 97.9863 12.2708 97.9863 11.9491C97.9863 11.6793 97.8929 11.4562 97.7062 11.2798C97.5297 11.1033 97.3066 10.9581 97.0368 10.8439C96.7774 10.7298 96.4038 10.6001 95.9161 10.4548C95.2104 10.2368 94.6345 10.0189 94.1883 9.801C93.742 9.58308 93.3581 9.26139 93.0364 8.83592C92.7147 8.41045 92.5539 7.85527 92.5539 7.17037C92.5539 6.15341 92.9222 5.35955 93.659 4.7888C94.3958 4.20767 95.3557 3.91711 96.5387 3.91711C97.7425 3.91711 98.7127 4.20767 99.4495 4.7888C100.186 5.35955 100.581 6.15859 100.633 7.18594H97.7529C97.7321 6.83311 97.6024 6.55812 97.3637 6.36095C97.125 6.15341 96.8189 6.04963 96.4453 6.04963C96.1236 6.04963 95.8642 6.13784 95.667 6.31425C95.4699 6.48029 95.3713 6.72415 95.3713 7.04585C95.3713 7.39867 95.5373 7.67367 95.8694 7.87084C96.2015 8.06801 96.7203 8.28074 97.426 8.50904C98.1316 8.74771 98.7024 8.97601 99.1382 9.19394C99.5844 9.41186 99.9684 9.72836 100.29 10.1435C100.612 10.5585 100.773 11.093 100.773 11.7467C100.773 12.3694 100.612 12.9349 100.29 13.4434C99.9788 13.9519 99.5222 14.3566 98.9203 14.6576C98.3184 14.9585 97.6076 15.109 96.7878 15.109ZM103.438 5.41143C102.971 5.41143 102.587 5.27653 102.286 5.00672C101.996 4.72654 101.85 4.38409 101.85 3.97937C101.85 3.56428 101.996 3.22184 102.286 2.95203C102.587 2.67184 102.971 2.53175 103.438 2.53175C103.895 2.53175 104.268 2.67184 104.559 2.95203C104.86 3.22184 105.01 3.56428 105.01 3.97937C105.01 4.38409 104.86 4.72654 104.559 5.00672C104.268 5.27653 103.895 5.41143 103.438 5.41143ZM104.761 6.31425V15H102.099V6.31425H104.761ZM109.041 3.48127V15H106.379V3.48127H109.041ZM114.565 12.5095L116.449 6.31425H119.282L116.2 15H112.915L109.833 6.31425H112.682L114.565 12.5095ZM119.561 10.6416C119.561 9.74912 119.728 8.96564 120.06 8.29112C120.402 7.6166 120.864 7.09773 121.445 6.73453C122.026 6.37133 122.675 6.18973 123.391 6.18973C124.003 6.18973 124.537 6.31425 124.994 6.56331C125.461 6.81236 125.819 7.13924 126.068 7.54395V6.31425H128.73V15H126.068V13.7703C125.809 14.175 125.445 14.5019 124.978 14.7509C124.522 15 123.987 15.1245 123.375 15.1245C122.669 15.1245 122.026 14.9429 121.445 14.5797C120.864 14.2061 120.402 13.6821 120.06 13.0076C119.728 12.3227 119.561 11.534 119.561 10.6416ZM126.068 10.6571C126.068 9.99298 125.881 9.46893 125.508 9.08497C125.144 8.70102 124.698 8.50904 124.169 8.50904C123.64 8.50904 123.188 8.70102 122.815 9.08497C122.452 9.45856 122.27 9.97742 122.27 10.6416C122.27 11.3057 122.452 11.8349 122.815 12.2293C123.188 12.6132 123.64 12.8052 124.169 12.8052C124.698 12.8052 125.144 12.6132 125.508 12.2293C125.881 11.8453 126.068 11.3213 126.068 10.6571Z" fill="white"/>
<path d="M131.729 15.1245C131.19 15.1245 130.754 14.9792 130.422 14.6887C130.1 14.3877 129.939 14.009 129.939 13.5524C129.939 13.0958 130.1 12.717 130.422 12.4161C130.754 12.1151 131.19 11.9647 131.729 11.9647C132.259 11.9647 132.684 12.1151 133.006 12.4161C133.338 12.717 133.504 13.0958 133.504 13.5524C133.504 13.9986 133.338 14.3722 133.006 14.6731C132.684 14.9741 132.259 15.1245 131.729 15.1245Z" fill="#FF5757"/>
<g clip-path="url(#clip0_837_351)">
<rect y="2" width="21" height="15" rx="3" fill="white"/>
<path fill-rule="evenodd" clip-rule="evenodd" d="M0 2H9V9H0V2Z" fill="#1A47B8"/>
<path fill-rule="evenodd" clip-rule="evenodd" d="M9 2V3H21V2H9ZM9 4V5H21V4H9ZM9 6V7H21V6H9ZM9 8V9H21V8H9ZM0 10V11H21V10H0ZM0 12V13H21V12H0ZM0 14V15H21V14H0ZM0 16V17H21V16H0Z" fill="#F93939"/>
<path fill-rule="evenodd" clip-rule="evenodd" d="M1 3V4H2V3H1ZM3 3V4H4V3H3ZM5 3V4H6V3H5ZM7 3V4H8V3H7ZM6 4V5H7V4H6ZM4 4V5H5V4H4ZM2 4V5H3V4H2ZM1 5V6H2V5H1ZM3 5V6H4V5H3ZM5 5V6H6V5H5ZM7 5V6H8V5H7ZM1 7V8H2V7H1ZM3 7V8H4V7H3ZM5 7V8H6V7H5ZM7 7V8H8V7H7ZM6 6V7H7V6H6ZM4 6V7H5V6H4ZM2 6V7H3V6H2Z" fill="white"/>
</g>
<defs>
<clipPath id="clip0_837_351">
<rect y="2" width="21" height="15" rx="3" fill="white"/>
</clipPath>
</defs>
</svg>
