<svg viewBox="294.4786 221.2395 383.5214 112.521" width="5000" height="1466.9455211625739" xmlns="http://www.w3.org/2000/svg" xmlns:xlink="http://www.w3.org/1999/xlink" preserveAspectRatio="none"><defs></defs><style>.aIptOCySncolors-0 {fill:#35C0ED;fill-opacity:1;}.aIptOCySncolors-1 {fill:#5ED1F7;fill-opacity:1;}.aIptOCySncolors-2 {fill:#2F95B6;fill-opacity:1;}.aRS-uZeyZu0filter-floo {flood-color:#35C0ED;flood-opacity:0.5;}.companyName {fill:#08376B;fill-opacity:1;}.icon3-str {stroke:#2F90B0;stroke-opacity:1;}.shapeStroke-str {stroke:#08376B;stroke-opacity:1;}.text {fill:#08376B;fill-opacity:1;}</style><defs>
      <filter
        x="-1000"
        y="-1000"
        width="5000"
        height="5000"
        id="RS-uZeyZu"
        filterUnits="userSpaceOnUse"
        primitiveUnits="userSpaceOnUse"
        color-interpolation-filters="sRGB">
        <feMerge><feMergeNode in="SourceGraphic" /></feMerge>
      </filter></defs><g opacity="1" transform="rotate(0 294.4786 229.3074)">
<svg width="103.0678" height="104.4531" x="294.4786" y="229.3074" version="1.1" preserveAspectRatio="none" viewBox="20.416000366210938 20.648998260498047 157.58399963378906 159.7019805908203">
  <g transform="matrix(-1 0 0 1 198.41600036621094 0)" ><g><path d="M56.167 82.431V68.723l-11.974-6.914-23.777 13.728v.213l23.592 13.621 12.159-6.94z" data-color="1" class="aIptOCySncolors-0"></path><path d="M44.008 89.371v27.456l.185.106 11.974-6.913V82.454l-12.159 6.917z" data-color="2" class="aIptOCySncolors-1"></path><path d="M79.759 78.569l12.716-7.257V58.241l-12.531-7.234-23.777 13.728v.213l23.592 13.621z" data-color="1" class="aIptOCySncolors-0"></path><path d="M79.759 78.569v58.994l.185.107 12.531-7.234v-59.1l-12.716 7.233z" data-color="2" class="aIptOCySncolors-1"></path><path d="M116.067 64.977l14.379-8.207V45.61l-14.194-8.195-23.777 13.728v.213l23.592 13.621z" data-color="1" class="aIptOCySncolors-0"></path><path d="M116.067 64.977v93.853l.185.107 14.194-8.195V56.797l-14.379 8.18z" data-color="2" class="aIptOCySncolors-1"></path><path d="M20.416 103.206l23.592 13.621V89.371L20.416 75.75v27.456z" data-color="3" class="aIptOCySncolors-2"></path><path d="M92.475 58.241v86.969l23.592 13.62V64.977L92.475 51.356v6.885z" data-color="3" class="aIptOCySncolors-2"></path><path d="M56.167 68.723v55.22l23.592 13.62V78.569L56.167 64.948v3.775z" data-color="3" class="aIptOCySncolors-2"></path><path d="M130.446 34.591v132.032l23.592 13.621V48.212l-23.592-13.621z" data-color="3" class="aIptOCySncolors-2"></path><path d="M178 34.535v-.158l-23.777-13.728-23.777 13.728v.214l23.592 13.621L178 34.535z" data-color="1" class="aIptOCySncolors-0"></path><path d="M154.038 180.244l.185.107L178 166.623V34.581l-23.962 13.631v132.032z" data-color="2" class="aIptOCySncolors-1"></path><path opacity=".4" d="M79.759 78.569v58.994l.185.107 12.531-7.234v-59.1l-12.716 7.233z"></path><path opacity=".4" d="M154.038 180.244l.185.107L178 166.623V34.581l-23.962 13.631v132.032z"></path></g></g>
</svg>
</g><g opacity="1" transform="rotate(0 435.7333 230.4124)">
<svg width="242.2667" height="73.3832" x="435.7333" y="230.4124" version="1.1" preserveAspectRatio="none" viewBox="4.8 -28.48 234.28 70.96000000000001">
  <g transform="matrix(1 0 0 1 0 0)" class="companyName"><path id="id-D6z1nYkh21" d="M14.48 0L4.80 0L4.80-28L14.00-28Q17.32-28 20.08-26.94Q22.84-25.88 24.82-24.02Q26.80-22.16 27.90-19.60Q29-17.04 29-14.08L29-14.08Q29-11 27.86-8.42Q26.72-5.84 24.74-3.96Q22.76-2.08 20.12-1.04Q17.48 0 14.48 0L14.48 0ZM8.44-26.24L8.44-1.76L12.84-1.76Q16.12-1.76 18.42-2.86Q20.72-3.96 22.20-5.72Q23.68-7.48 24.36-9.66Q25.04-11.84 25.04-14L25.04-14Q25.04-16.40 24.24-18.62Q23.44-20.84 21.90-22.54Q20.36-24.24 18.08-25.24Q15.80-26.24 12.84-26.24L12.84-26.24L8.44-26.24Z M35.96-9.12L51.16-9.12L51.16-9.96Q51.16-12.64 50.40-14.60Q49.64-16.56 48.34-17.84Q47.04-19.12 45.32-19.76Q43.60-20.40 41.68-20.40L41.68-20.40Q39.64-20.40 37.92-19.70Q36.20-19 34.92-17.66Q33.64-16.32 32.92-14.42Q32.20-12.52 32.20-10.12L32.20-10.12Q32.20-8.12 32.82-6.22Q33.44-4.32 34.70-2.82Q35.96-1.32 37.90-0.42Q39.84 0.48 42.48 0.48L42.48 0.48Q45.04 0.48 47.20-0.42Q49.36-1.32 50.96-3L50.96-3L49.68-4.28Q48.84-3.56 48.10-2.96Q47.36-2.36 46.60-1.96Q45.84-1.56 45.02-1.34Q44.20-1.12 43.20-1.12L43.20-1.12Q42.08-1.12 40.82-1.46Q39.56-1.80 38.48-2.68Q37.40-3.56 36.68-5.12Q35.96-6.68 35.96-9.12L35.96-9.12ZM47.68-10.72L35.96-10.72Q35.96-12.32 36.30-13.82Q36.64-15.32 37.34-16.48Q38.04-17.64 39.12-18.34Q40.20-19.04 41.68-19.04L41.68-19.04Q44.52-19.04 46.10-16.82Q47.68-14.60 47.68-10.72L47.68-10.72Z M66.84-15.44L69.12-15.44Q69.12-16.52 68.56-17.44Q68-18.36 67.02-19.02Q66.04-19.68 64.74-20.06Q63.44-20.44 61.96-20.44L61.96-20.44Q60.56-20.44 59.34-20.08Q58.12-19.72 57.22-19Q56.32-18.28 55.80-17.22Q55.28-16.16 55.28-14.76L55.28-14.76Q55.28-12.84 56.16-11.72Q57.04-10.60 58.36-9.92Q59.68-9.24 61.22-8.82Q62.76-8.40 64.08-7.90Q65.40-7.40 66.28-6.64Q67.16-5.88 67.16-4.56L67.16-4.56Q67.16-4 66.98-3.40Q66.80-2.80 66.32-2.30Q65.84-1.80 65-1.46Q64.16-1.12 62.88-1.12L62.88-1.12Q61.28-1.12 60.18-1.62Q59.08-2.12 58.38-2.82Q57.68-3.52 57.38-4.24Q57.08-4.96 57.08-5.44L57.08-5.44L54.48-5.44Q54.48-4.32 55.00-3.26Q55.52-2.20 56.58-1.36Q57.64-0.52 59.18-0.02Q60.72 0.48 62.76 0.48L62.76 0.48Q66.44 0.48 68.30-1.14Q70.16-2.76 70.16-5.40L70.16-5.40Q70.16-7.32 69.26-8.48Q68.36-9.64 67-10.34Q65.64-11.04 64.06-11.48Q62.48-11.92 61.12-12.40Q59.76-12.88 58.86-13.56Q57.96-14.24 57.96-15.48L57.96-15.48Q57.96-16 58.16-16.58Q58.36-17.16 58.84-17.66Q59.32-18.16 60.12-18.50Q60.92-18.84 62.12-18.84L62.12-18.84Q63.32-18.84 64.20-18.50Q65.08-18.16 65.68-17.66Q66.28-17.16 66.56-16.56Q66.84-15.96 66.84-15.44L66.84-15.44Z M85.60-1.60L85.60-1.60Q84.16-1.60 82.82-2.04Q81.48-2.48 80.44-3.46Q79.40-4.44 78.78-6.06Q78.16-7.68 78.16-10.04L78.16-10.04Q78.16-12.48 78.84-14.18Q79.52-15.88 80.54-16.90Q81.56-17.92 82.80-18.38Q84.04-18.84 85.16-18.84L85.16-18.84Q87-18.84 88.36-17.88Q89.72-16.92 90.16-15.52L90.16-15.52L92.92-15.52Q92.52-16.96 91.64-17.90Q90.76-18.84 89.62-19.42Q88.48-20 87.18-20.22Q85.88-20.44 84.68-20.44L84.68-20.44Q82.16-20.44 80.24-19.62Q78.32-18.80 77-17.40Q75.68-16 75.02-14.12Q74.36-12.24 74.36-10.12L74.36-10.12Q74.36-7.88 75.08-5.94Q75.80-4 77.14-2.58Q78.48-1.16 80.36-0.34Q82.24 0.48 84.60 0.48L84.60 0.48Q87.24 0.48 89.22-0.40Q91.20-1.28 92.56-2.32L92.56-2.32L91.40-3.84Q90-2.68 88.62-2.14Q87.24-1.60 85.60-1.60Z M116.84-9.96L116.84-9.96Q116.84-7.88 116.12-5.98Q115.40-4.08 114.06-2.64Q112.72-1.20 110.82-0.36Q108.92 0.48 106.56 0.48L106.56 0.48Q104.16 0.48 102.22-0.38Q100.28-1.24 98.94-2.68Q97.60-4.12 96.86-6.02Q96.12-7.92 96.12-9.96L96.12-9.96Q96.12-12.04 96.86-13.94Q97.60-15.84 98.94-17.28Q100.28-18.72 102.22-19.58Q104.16-20.44 106.56-20.44L106.56-20.44Q108.92-20.44 110.82-19.58Q112.72-18.72 114.06-17.28Q115.40-15.84 116.12-13.94Q116.84-12.04 116.84-9.96ZM113.04-9.96L113.04-9.96Q113.04-12.76 112.44-14.50Q111.84-16.24 110.88-17.20Q109.92-18.16 108.76-18.50Q107.60-18.84 106.52-18.84L106.52-18.84Q105.44-18.84 104.28-18.50Q103.12-18.16 102.14-17.20Q101.16-16.24 100.54-14.50Q99.92-12.76 99.92-9.96L99.92-9.96Q99.92-7.20 100.54-5.46Q101.16-3.72 102.14-2.76Q103.12-1.80 104.28-1.46Q105.44-1.12 106.52-1.12L106.52-1.12Q107.60-1.12 108.76-1.46Q109.92-1.80 110.88-2.76Q111.84-3.72 112.44-5.46Q113.04-7.20 113.04-9.96Z M122.04 0L125.44 0L125.44-11.40Q125.44-12.12 125.56-13.30Q125.68-14.48 126.18-15.62Q126.68-16.76 127.72-17.58Q128.76-18.40 130.64-18.40L130.64-18.40Q132-18.40 132.74-17.80Q133.48-17.20 133.84-16.32Q134.20-15.44 134.26-14.48Q134.32-13.52 134.32-12.80L134.32-12.80L134.32 0L137.72 0L137.72-11.40Q137.72-12.28 137.88-13.50Q138.04-14.72 138.56-15.80Q139.08-16.88 140.06-17.64Q141.04-18.40 142.72-18.40L142.72-18.40Q143.96-18.40 144.72-18.04Q145.48-17.68 145.90-16.96Q146.32-16.24 146.46-15.20Q146.60-14.16 146.60-12.80L146.60-12.80L146.60 0L150 0L150-13.96Q150-14.88 149.80-16.02Q149.60-17.16 148.94-18.14Q148.28-19.12 147.02-19.78Q145.76-20.44 143.68-20.44L143.68-20.44Q143.08-20.44 142.28-20.32Q141.48-20.20 140.60-19.80Q139.72-19.40 138.90-18.64Q138.08-17.88 137.48-16.64L137.48-16.64L137.20-16.64Q136.96-17.28 136.52-17.94Q136.08-18.60 135.40-19.16Q134.72-19.72 133.78-20.08Q132.84-20.44 131.52-20.44L131.52-20.44Q130.92-20.44 130.08-20.30Q129.24-20.16 128.40-19.76Q127.56-19.36 126.82-18.64Q126.08-17.92 125.60-16.76L125.60-16.76L125.44-16.76L125.44-20L122.04-20L122.04 0Z M156.40-20L156.40 10L159.80 10L159.80-3.28L159.96-3.28Q160.36-2.24 161.02-1.52Q161.68-0.80 162.52-0.36Q163.36 0.08 164.30 0.28Q165.24 0.48 166.20 0.48L166.20 0.48Q168.20 0.48 169.88-0.26Q171.56-1 172.78-2.36Q174.00-3.72 174.68-5.66Q175.36-7.60 175.36-9.96L175.36-9.96Q175.36-12.36 174.68-14.28Q174.00-16.20 172.78-17.58Q171.56-18.96 169.88-19.70Q168.20-20.44 166.20-20.44L166.20-20.44Q161.44-20.44 159.96-16.76L159.96-16.76L159.80-16.76L159.80-20L156.40-20ZM159.80-8.52L159.80-12Q159.80-13.32 160.22-14.50Q160.64-15.68 161.40-16.54Q162.16-17.40 163.18-17.90Q164.20-18.40 165.36-18.40L165.36-18.40Q166.60-18.40 167.74-17.94Q168.88-17.48 169.72-16.48Q170.56-15.48 171.06-13.88Q171.56-12.28 171.56-10.04L171.56-10.04Q171.56-7.76 171.06-6.16Q170.56-4.56 169.70-3.54Q168.84-2.52 167.72-2.06Q166.60-1.60 165.36-1.60L165.36-1.60Q164.24-1.60 163.24-2.06Q162.24-2.52 161.48-3.42Q160.72-4.32 160.26-5.60Q159.80-6.88 159.80-8.52L159.80-8.52Z M184.76 0L184.76-28L181.36-28L181.36 0L184.76 0Z M196.64-20L193.24-20L193.24 0L196.64 0L196.64-20ZM192.76-26.32L192.76-26.32Q192.76-25.44 193.40-24.80Q194.04-24.16 194.92-24.16L194.92-24.16Q195.80-24.16 196.44-24.80Q197.08-25.44 197.08-26.32L197.08-26.32Q197.08-27.20 196.44-27.84Q195.80-28.48 194.92-28.48L194.92-28.48Q194.04-28.48 193.40-27.84Q192.76-27.20 192.76-26.32Z M204.68 0L210.92-8.28L217.04 0L221.12 0L212.96-10.96L219.68-20L217.36-20L211.80-12.52L206.32-20L202.28-20L209.76-9.84L202.32 0L204.68 0Z M22.88 14L4.80 14L4.80 42L8.44 42L8.44 28.08L20.84 28.08L20.84 26.24L8.44 26.24L8.44 16.20L22.88 16.20L22.88 14Z M34.64 21.56L34.64 21.56Q37.56 21.56 39.16 22.38Q40.76 23.20 41.50 24.52Q42.24 25.84 42.36 27.56Q42.48 29.28 42.48 31.08L42.48 31.08L42.48 42L39.24 42L39.24 40.04Q38.08 41.16 36.28 41.82Q34.48 42.48 32.68 42.48L32.68 42.48Q30.96 42.48 29.64 41.88Q28.32 41.28 27.44 40.32Q26.56 39.36 26.12 38.16Q25.68 36.96 25.68 35.72L25.68 35.72Q25.68 34.44 26.16 33.16Q26.64 31.88 27.60 30.86Q28.56 29.84 29.96 29.20Q31.36 28.56 33.16 28.56L33.16 28.56Q34.96 28.56 36.58 29.26Q38.20 29.96 39.24 31.24L39.24 31.24L39.24 29.52Q39.24 26.24 38.26 24.64Q37.28 23.04 34.68 23.04L34.68 23.04Q33.56 23.04 32.72 23.32Q31.88 23.60 31.22 24.10Q30.56 24.60 30 25.34Q29.44 26.08 28.88 27L28.88 27L26.80 24.92Q27.36 24.32 27.98 23.72Q28.60 23.12 29.50 22.64Q30.40 22.16 31.64 21.86Q32.88 21.56 34.64 21.56ZM39.24 37.16L39.24 34.08Q39.04 33.60 38.66 32.96Q38.28 32.32 37.68 31.72Q37.08 31.12 36.24 30.70Q35.40 30.28 34.24 30.28L34.24 30.28Q33.08 30.28 32.12 30.74Q31.16 31.20 30.50 31.94Q29.84 32.68 29.48 33.68Q29.12 34.68 29.12 35.76L29.12 35.76Q29.12 37.04 29.58 37.98Q30.04 38.92 30.76 39.58Q31.48 40.24 32.36 40.56Q33.24 40.88 34.04 40.88L34.04 40.88Q34.80 40.88 35.58 40.60Q36.36 40.32 37.06 39.82Q37.76 39.32 38.32 38.64Q38.88 37.96 39.24 37.16L39.24 37.16Z M50.36 23.60L46.88 23.60L46.88 22L50.36 22L50.36 15.84L53.76 15.84L53.76 22L58.60 22L58.60 23.60L53.76 23.60L53.76 36.88Q53.76 37.36 53.80 37.98Q53.84 38.60 54.04 39.14Q54.24 39.68 54.66 40.04Q55.08 40.40 55.84 40.40L55.84 40.40Q56.80 40.40 57.44 39.68Q58.08 38.96 58.48 38.12L58.48 38.12L60.36 40.04Q58.40 42 55.92 42L55.92 42Q54.88 42 53.88 41.64Q52.88 41.28 52.10 40.54Q51.32 39.80 50.84 38.64Q50.36 37.48 50.36 35.92L50.36 35.92L50.36 23.60Z M67.28 22L63.88 22L63.88 35Q63.88 35.72 64.02 36.98Q64.16 38.24 64.84 39.46Q65.52 40.68 66.98 41.58Q68.44 42.48 71.08 42.48L71.08 42.48Q72.24 42.52 73.62 42.02Q75 41.52 76.40 40.12L76.40 40.12L77.04 39.48L77.20 39.48L77.20 42L80.60 42L80.60 22L77.20 22L77.20 34.40Q77.20 35.96 76.76 37.08Q76.32 38.20 75.60 38.94Q74.88 39.68 73.92 40.04Q72.96 40.40 71.92 40.40L71.92 40.40Q70.24 40.40 69.30 39.74Q68.36 39.08 67.90 38.20Q67.44 37.32 67.36 36.46Q67.28 35.60 67.28 35.20L67.28 35.20L67.28 22Z M90.52 22L87.12 22L87.12 42L90.52 42L90.52 29.92Q90.52 28.28 90.90 27.14Q91.28 26 91.88 25.28Q92.48 24.56 93.20 24.24Q93.92 23.92 94.60 23.92L94.60 23.92Q95.52 23.92 96.30 24.52Q97.08 25.12 97.44 25.64L97.44 25.64L98.80 23.16Q98.44 22.68 97.94 22.36Q97.44 22.04 96.94 21.86Q96.44 21.68 96.02 21.62Q95.60 21.56 95.40 21.56L95.40 21.56Q93.72 21.56 92.60 22.48Q91.48 23.40 90.76 25.20L90.76 25.20L90.52 25.20L90.52 22Z M109.76 21.56L109.76 21.56Q112.68 21.56 114.28 22.38Q115.88 23.20 116.62 24.52Q117.36 25.84 117.48 27.56Q117.60 29.28 117.60 31.08L117.60 31.08L117.60 42L114.36 42L114.36 40.04Q113.20 41.16 111.40 41.82Q109.60 42.48 107.80 42.48L107.80 42.48Q106.08 42.48 104.76 41.88Q103.44 41.28 102.56 40.32Q101.68 39.36 101.24 38.16Q100.80 36.96 100.80 35.72L100.80 35.72Q100.80 34.44 101.28 33.16Q101.76 31.88 102.72 30.86Q103.68 29.84 105.08 29.20Q106.48 28.56 108.28 28.56L108.28 28.56Q110.08 28.56 111.70 29.26Q113.32 29.96 114.36 31.24L114.36 31.24L114.36 29.52Q114.36 26.24 113.38 24.64Q112.40 23.04 109.80 23.04L109.80 23.04Q108.68 23.04 107.84 23.32Q107.00 23.60 106.34 24.10Q105.68 24.60 105.12 25.34Q104.56 26.08 104.00 27L104.00 27L101.92 24.92Q102.48 24.32 103.10 23.72Q103.72 23.12 104.62 22.64Q105.52 22.16 106.76 21.86Q108.00 21.56 109.76 21.56ZM114.36 37.16L114.36 34.08Q114.16 33.60 113.78 32.96Q113.40 32.32 112.80 31.72Q112.20 31.12 111.36 30.70Q110.52 30.28 109.36 30.28L109.36 30.28Q108.20 30.28 107.24 30.74Q106.28 31.20 105.62 31.94Q104.96 32.68 104.60 33.68Q104.24 34.68 104.24 35.76L104.24 35.76Q104.24 37.04 104.70 37.98Q105.16 38.92 105.88 39.58Q106.60 40.24 107.48 40.56Q108.36 40.88 109.16 40.88L109.16 40.88Q109.92 40.88 110.70 40.60Q111.48 40.32 112.18 39.82Q112.88 39.32 113.44 38.64Q114.00 37.96 114.36 37.16L114.36 37.16Z M124.00 42L127.40 42L127.40 30.60Q127.40 29.88 127.52 28.70Q127.64 27.52 128.14 26.38Q128.64 25.24 129.68 24.42Q130.72 23.60 132.60 23.60L132.60 23.60Q133.96 23.60 134.70 24.20Q135.44 24.80 135.80 25.68Q136.16 26.56 136.22 27.52Q136.28 28.48 136.28 29.20L136.28 29.20L136.28 42L139.68 42L139.68 30.60Q139.68 29.72 139.84 28.50Q140 27.28 140.52 26.20Q141.04 25.12 142.02 24.36Q143 23.60 144.68 23.60L144.68 23.60Q145.92 23.60 146.68 23.96Q147.44 24.32 147.86 25.04Q148.28 25.76 148.42 26.80Q148.56 27.84 148.56 29.20L148.56 29.20L148.56 42L151.96 42L151.96 28.04Q151.96 27.12 151.76 25.98Q151.56 24.84 150.90 23.86Q150.24 22.88 148.98 22.22Q147.72 21.56 145.64 21.56L145.64 21.56Q145.04 21.56 144.24 21.68Q143.44 21.80 142.56 22.20Q141.68 22.60 140.86 23.36Q140.04 24.12 139.44 25.36L139.44 25.36L139.16 25.36Q138.92 24.72 138.48 24.06Q138.04 23.40 137.36 22.84Q136.68 22.28 135.74 21.92Q134.80 21.56 133.48 21.56L133.48 21.56Q132.88 21.56 132.04 21.70Q131.20 21.84 130.36 22.24Q129.52 22.64 128.78 23.36Q128.04 24.08 127.56 25.24L127.56 25.24L127.40 25.24L127.40 22L124.00 22L124.00 42Z M160.92 32.88L176.12 32.88L176.12 32.04Q176.12 29.36 175.36 27.40Q174.60 25.44 173.30 24.16Q172.00 22.88 170.28 22.24Q168.56 21.60 166.64 21.60L166.64 21.60Q164.60 21.60 162.88 22.30Q161.16 23 159.88 24.34Q158.60 25.68 157.88 27.58Q157.16 29.48 157.16 31.88L157.16 31.88Q157.16 33.88 157.78 35.78Q158.40 37.68 159.66 39.18Q160.92 40.68 162.86 41.58Q164.80 42.48 167.44 42.48L167.44 42.48Q170.00 42.48 172.16 41.58Q174.32 40.68 175.92 39L175.92 39L174.64 37.72Q173.80 38.44 173.06 39.04Q172.32 39.64 171.56 40.04Q170.80 40.44 169.98 40.66Q169.16 40.88 168.16 40.88L168.16 40.88Q167.04 40.88 165.78 40.54Q164.52 40.20 163.44 39.32Q162.36 38.44 161.64 36.88Q160.92 35.32 160.92 32.88L160.92 32.88ZM172.64 31.28L160.92 31.28Q160.92 29.68 161.26 28.18Q161.60 26.68 162.30 25.52Q163.00 24.36 164.08 23.66Q165.16 22.96 166.64 22.96L166.64 22.96Q169.48 22.96 171.06 25.18Q172.64 27.40 172.64 31.28L172.64 31.28Z M194.64 42L198.04 42L198.04 29.04Q198.04 28.32 197.92 27.06Q197.80 25.80 197.14 24.58Q196.48 23.36 195.04 22.46Q193.60 21.56 190.96 21.56L190.96 21.56Q189.80 21.52 188.36 22.02Q186.92 22.52 185.52 23.92L185.52 23.92L184.88 24.56L184.72 24.56L184.72 22L181.32 22L181.32 42L184.72 42L184.72 29.64Q184.72 28.08 185.16 26.96Q185.60 25.84 186.36 25.08Q187.12 24.32 188.10 23.96Q189.08 23.60 190.12 23.60L190.12 23.60Q191.80 23.60 192.72 24.26Q193.64 24.92 194.06 25.80Q194.48 26.68 194.56 27.56Q194.64 28.44 194.64 28.84L194.64 28.84L194.64 42Z M206.04 23.60L202.56 23.60L202.56 22L206.04 22L206.04 15.84L209.44 15.84L209.44 22L214.28 22L214.28 23.60L209.44 23.60L209.44 36.88Q209.44 37.36 209.48 37.98Q209.52 38.60 209.72 39.14Q209.92 39.68 210.34 40.04Q210.76 40.40 211.52 40.40L211.52 40.40Q212.48 40.40 213.12 39.68Q213.76 38.96 214.16 38.12L214.16 38.12L216.04 40.04Q214.08 42 211.60 42L211.60 42Q210.56 42 209.56 41.64Q208.56 41.28 207.78 40.54Q207.00 39.80 206.52 38.64Q206.04 37.48 206.04 35.92L206.04 35.92L206.04 23.60Z M239.08 32.04L239.08 32.04Q239.08 34.12 238.36 36.02Q237.64 37.92 236.30 39.36Q234.96 40.80 233.06 41.64Q231.16 42.48 228.80 42.48L228.80 42.48Q226.40 42.48 224.46 41.62Q222.52 40.76 221.18 39.32Q219.84 37.88 219.10 35.98Q218.36 34.08 218.36 32.04L218.36 32.04Q218.36 29.96 219.10 28.06Q219.84 26.16 221.18 24.72Q222.52 23.28 224.46 22.42Q226.40 21.56 228.80 21.56L228.80 21.56Q231.16 21.56 233.06 22.42Q234.96 23.28 236.30 24.72Q237.64 26.16 238.36 28.06Q239.08 29.96 239.08 32.04ZM235.28 32.04L235.28 32.04Q235.28 29.24 234.68 27.50Q234.08 25.76 233.12 24.80Q232.16 23.84 231.00 23.50Q229.84 23.16 228.76 23.16L228.76 23.16Q227.68 23.16 226.52 23.50Q225.36 23.84 224.38 24.80Q223.40 25.76 222.78 27.50Q222.16 29.24 222.16 32.04L222.16 32.04Q222.16 34.80 222.78 36.54Q223.40 38.28 224.38 39.24Q225.36 40.20 226.52 40.54Q227.68 40.88 228.76 40.88L228.76 40.88Q229.84 40.88 231.00 40.54Q232.16 40.20 233.12 39.24Q234.08 38.28 234.68 36.54Q235.28 34.80 235.28 32.04Z"/></g>
</svg>
</g><g opacity="1" transform="rotate(0 414.3299 221.2395)">
<svg width="1.8345" height="112.5209" x="414.3299" y="221.2395" version="1.1" preserveAspectRatio="none" viewBox="0 0 1.8345 112.5209">
  <rect x="0" y="0" width="1.8345" height="112.5209" class="companyName shapeStroke-str" style="stroke-width:0;" rx="0px" ry="0px" />
</svg>
</g><g opacity="1" transform="rotate(0 435.7333 313.58)">
<svg width="150.1863" height="11.0075" x="435.7333" y="313.58" version="1.1" preserveAspectRatio="none" viewBox="4.56 -29.68 408.32 29.92">
  <g transform="matrix(1 0 0 1 0 0)" class="text"><path id="id-D-YM9nyY419" d="M23.76-25.44L7.52-25.44L7.52-14.44L22-14.44L22-11.88L7.52-11.88L7.52 0L4.56 0L4.56-28L23.76-28L23.76-25.44Z M37-21.20Q41.12-21.20 43.32-19.14Q45.52-17.08 45.52-13.04L45.52-13.04L45.52 0L42.80 0L42.80-3.28Q41.84-1.64 39.98-0.72Q38.12 0.20 35.56 0.20L35.56 0.20Q32.04 0.20 29.96-1.48Q27.88-3.16 27.88-5.92L27.88-5.92Q27.88-8.60 29.82-10.24Q31.76-11.88 36-11.88L36-11.88L42.68-11.88L42.68-13.16Q42.68-15.88 41.16-17.30Q39.64-18.72 36.72-18.72L36.72-18.72Q34.72-18.72 32.88-18.06Q31.04-17.40 29.72-16.24L29.72-16.24L28.44-18.36Q30.04-19.72 32.28-20.46Q34.52-21.20 37-21.20L37-21.20ZM36-2.04Q38.40-2.04 40.12-3.14Q41.84-4.24 42.68-6.32L42.68-6.32L42.68-9.76L36.08-9.76Q30.68-9.76 30.68-6L30.68-6Q30.68-4.16 32.08-3.10Q33.48-2.04 36-2.04L36-2.04Z M63.24 0.20Q60.12 0.20 57.66-1.16Q55.20-2.52 53.80-4.98Q52.40-7.44 52.40-10.52L52.40-10.52Q52.40-13.60 53.80-16.04Q55.20-18.48 57.66-19.84Q60.12-21.20 63.24-21.20L63.24-21.20Q65.96-21.20 68.10-20.14Q70.24-19.08 71.48-17.04L71.48-17.04L69.36-15.60Q68.32-17.16 66.72-17.94Q65.12-18.72 63.24-18.72L63.24-18.72Q60.96-18.72 59.14-17.70Q57.32-16.68 56.30-14.80Q55.28-12.92 55.28-10.52L55.28-10.52Q55.28-8.08 56.30-6.22Q57.32-4.36 59.14-3.34Q60.96-2.32 63.24-2.32L63.24-2.32Q65.12-2.32 66.72-3.08Q68.32-3.84 69.36-5.40L69.36-5.40L71.48-3.96Q70.24-1.92 68.08-0.86Q65.92 0.20 63.24 0.20L63.24 0.20Z M78.24 0L78.24-21.04L81.08-21.04L81.08 0L78.24 0ZM79.68-25.64Q78.80-25.64 78.20-26.24Q77.60-26.84 77.60-27.68L77.60-27.68Q77.60-28.48 78.20-29.08Q78.80-29.68 79.68-29.68L79.68-29.68Q80.56-29.68 81.16-29.10Q81.76-28.52 81.76-27.72L81.76-27.72Q81.76-26.84 81.16-26.24Q80.56-25.64 79.68-25.64L79.68-25.64Z M90.20 0L90.20-29.68L93.04-29.68L93.04 0L90.20 0Z M102.16 0L102.16-21.04L105.00-21.04L105.00 0L102.16 0ZM103.60-25.64Q102.72-25.64 102.12-26.24Q101.52-26.84 101.52-27.68L101.52-27.68Q101.52-28.48 102.12-29.08Q102.72-29.68 103.60-29.68L103.60-29.68Q104.48-29.68 105.08-29.10Q105.68-28.52 105.68-27.72L105.68-27.72Q105.68-26.84 105.08-26.24Q104.48-25.64 103.60-25.64L103.60-25.64Z M124.20-3.32L125.20-1.28Q124.40-0.56 123.22-0.18Q122.04 0.20 120.76 0.20L120.76 0.20Q117.80 0.20 116.20-1.40Q114.60-3 114.60-5.92L114.60-5.92L114.60-18.64L110.84-18.64L110.84-21.04L114.60-21.04L114.60-25.64L117.44-25.64L117.44-21.04L123.84-21.04L123.84-18.64L117.44-18.64L117.44-6.08Q117.44-4.20 118.38-3.22Q119.32-2.24 121.08-2.24L121.08-2.24Q121.96-2.24 122.78-2.52Q123.60-2.80 124.20-3.32L124.20-3.32Z M138.92-21.20Q143.04-21.20 145.24-19.14Q147.44-17.08 147.44-13.04L147.44-13.04L147.44 0L144.72 0L144.72-3.28Q143.76-1.64 141.90-0.72Q140.04 0.20 137.48 0.20L137.48 0.20Q133.96 0.20 131.88-1.48Q129.80-3.16 129.80-5.92L129.80-5.92Q129.80-8.60 131.74-10.24Q133.68-11.88 137.92-11.88L137.92-11.88L144.60-11.88L144.60-13.16Q144.60-15.88 143.08-17.30Q141.56-18.72 138.64-18.72L138.64-18.72Q136.64-18.72 134.80-18.06Q132.96-17.40 131.64-16.24L131.64-16.24L130.36-18.36Q131.96-19.72 134.20-20.46Q136.44-21.20 138.92-21.20L138.92-21.20ZM137.92-2.04Q140.32-2.04 142.04-3.14Q143.76-4.24 144.60-6.32L144.60-6.32L144.60-9.76L138.00-9.76Q132.60-9.76 132.60-6L132.60-6Q132.60-4.16 134.00-3.10Q135.40-2.04 137.92-2.04L137.92-2.04Z M167.08-21.20Q171.04-21.20 173.38-18.90Q175.72-16.60 175.72-12.20L175.72-12.20L175.72 0L172.88 0L172.88-11.92Q172.88-15.20 171.24-16.92Q169.60-18.64 166.56-18.64L166.56-18.64Q163.16-18.64 161.18-16.62Q159.20-14.60 159.20-11.04L159.20-11.04L159.20 0L156.36 0L156.36-21.04L159.08-21.04L159.08-17.16Q160.24-19.08 162.30-20.14Q164.36-21.20 167.08-21.20L167.08-21.20Z M201.08-29.68L203.92-29.68L203.92 0L201.20 0L201.20-4.16Q199.92-2.04 197.82-0.92Q195.72 0.20 193.08 0.20L193.08 0.20Q190.12 0.20 187.72-1.16Q185.32-2.52 183.96-4.96Q182.60-7.40 182.60-10.52L182.60-10.52Q182.60-13.64 183.96-16.08Q185.32-18.52 187.72-19.86Q190.12-21.20 193.08-21.20L193.08-21.20Q195.64-21.20 197.70-20.14Q199.76-19.08 201.08-17.04L201.08-17.04L201.08-29.68ZM193.32-2.32Q195.52-2.32 197.30-3.34Q199.08-4.36 200.10-6.24Q201.12-8.12 201.12-10.52L201.12-10.52Q201.12-12.92 200.10-14.80Q199.08-16.68 197.30-17.70Q195.52-18.72 193.32-18.72L193.32-18.72Q191.08-18.72 189.30-17.70Q187.52-16.68 186.50-14.80Q185.48-12.92 185.48-10.52L185.48-10.52Q185.48-8.12 186.50-6.24Q187.52-4.36 189.30-3.34Q191.08-2.32 193.32-2.32L193.32-2.32Z M221.64 0.20Q218.60 0.20 216.16-1.18Q213.72-2.56 212.32-5Q210.92-7.44 210.92-10.52L210.92-10.52Q210.92-13.60 212.32-16.04Q213.72-18.48 216.16-19.84Q218.60-21.20 221.64-21.20L221.64-21.20Q224.68-21.20 227.12-19.84Q229.56-18.48 230.94-16.04Q232.32-13.60 232.32-10.52L232.32-10.52Q232.32-7.44 230.94-5Q229.56-2.56 227.12-1.18Q224.68 0.20 221.64 0.20L221.64 0.20ZM221.64-2.32Q223.88-2.32 225.66-3.34Q227.44-4.36 228.44-6.24Q229.44-8.12 229.44-10.52L229.44-10.52Q229.44-12.92 228.44-14.80Q227.44-16.68 225.66-17.70Q223.88-18.72 221.64-18.72L221.64-18.72Q219.40-18.72 217.62-17.70Q215.84-16.68 214.82-14.80Q213.80-12.92 213.80-10.52L213.80-10.52Q213.80-8.12 214.82-6.24Q215.84-4.36 217.62-3.34Q219.40-2.32 221.64-2.32L221.64-2.32Z M258.36-21.20Q262.48-21.20 264.68-19.14Q266.88-17.08 266.88-13.04L266.88-13.04L266.88 0L264.16 0L264.16-3.28Q263.20-1.64 261.34-0.72Q259.48 0.20 256.92 0.20L256.92 0.20Q253.40 0.20 251.32-1.48Q249.24-3.16 249.24-5.92L249.24-5.92Q249.24-8.60 251.18-10.24Q253.12-11.88 257.36-11.88L257.36-11.88L264.04-11.88L264.04-13.16Q264.04-15.88 262.52-17.30Q261-18.72 258.08-18.72L258.08-18.72Q256.08-18.72 254.24-18.06Q252.40-17.40 251.08-16.24L251.08-16.24L249.80-18.36Q251.40-19.72 253.64-20.46Q255.88-21.20 258.36-21.20L258.36-21.20ZM257.36-2.04Q259.76-2.04 261.48-3.14Q263.20-4.24 264.04-6.32L264.04-6.32L264.04-9.76L257.44-9.76Q252.04-9.76 252.04-6L252.04-6Q252.04-4.16 253.44-3.10Q254.84-2.04 257.36-2.04L257.36-2.04Z M295.80 0.24Q292.68 0.24 289.82-0.76Q286.96-1.76 285.40-3.40L285.40-3.40L286.56-5.68Q288.08-4.16 290.60-3.22Q293.12-2.28 295.80-2.28L295.80-2.28Q299.56-2.28 301.44-3.66Q303.32-5.04 303.32-7.24L303.32-7.24Q303.32-8.92 302.30-9.92Q301.28-10.92 299.80-11.46Q298.32-12 295.68-12.64L295.68-12.64Q292.52-13.44 290.64-14.18Q288.76-14.92 287.42-16.44Q286.08-17.96 286.08-20.56L286.08-20.56Q286.08-22.68 287.20-24.42Q288.32-26.16 290.64-27.20Q292.96-28.24 296.40-28.24L296.40-28.24Q298.80-28.24 301.10-27.58Q303.40-26.92 305.08-25.76L305.08-25.76L304.08-23.40Q302.32-24.56 300.32-25.14Q298.32-25.72 296.40-25.72L296.40-25.72Q292.72-25.72 290.86-24.30Q289.00-22.88 289.00-20.64L289.00-20.64Q289.00-18.96 290.02-17.94Q291.04-16.92 292.58-16.38Q294.12-15.84 296.72-15.20L296.72-15.20Q299.80-14.44 301.70-13.70Q303.60-12.96 304.92-11.46Q306.24-9.96 306.24-7.40L306.24-7.40Q306.24-5.28 305.10-3.54Q303.96-1.80 301.60-0.78Q299.24 0.24 295.80 0.24L295.80 0.24Z M320.64-21.20Q324.76-21.20 326.96-19.14Q329.16-17.08 329.16-13.04L329.16-13.04L329.16 0L326.44 0L326.44-3.28Q325.48-1.64 323.62-0.72Q321.76 0.20 319.20 0.20L319.20 0.20Q315.68 0.20 313.60-1.48Q311.52-3.16 311.52-5.92L311.52-5.92Q311.52-8.60 313.46-10.24Q315.40-11.88 319.64-11.88L319.64-11.88L326.32-11.88L326.32-13.16Q326.32-15.88 324.80-17.30Q323.28-18.72 320.36-18.72L320.36-18.72Q318.36-18.72 316.52-18.06Q314.68-17.40 313.36-16.24L313.36-16.24L312.08-18.36Q313.68-19.72 315.92-20.46Q318.16-21.20 320.64-21.20L320.64-21.20ZM319.64-2.04Q322.04-2.04 323.76-3.14Q325.48-4.24 326.32-6.32L326.32-6.32L326.32-9.76L319.72-9.76Q314.32-9.76 314.32-6L314.32-6Q314.32-4.16 315.72-3.10Q317.12-2.04 319.64-2.04L319.64-2.04Z M354.20-21.04L357.04-21.04L357.04 0L354.32 0L354.32-3.84Q353.20-1.92 351.24-0.86Q349.28 0.20 346.76 0.20L346.76 0.20Q342.64 0.20 340.26-2.10Q337.88-4.40 337.88-8.84L337.88-8.84L337.88-21.04L340.72-21.04L340.72-9.12Q340.72-5.80 342.36-4.08Q344.00-2.36 347.04-2.36L347.04-2.36Q350.36-2.36 352.28-4.38Q354.20-6.40 354.20-10L354.20-10L354.20-21.04ZM344.88-24.32L350.36-29.28L354.16-29.28L347.68-24.32L344.88-24.32Z M382.56-29.68L385.40-29.68L385.40 0L382.68 0L382.68-4.16Q381.40-2.04 379.30-0.92Q377.20 0.20 374.56 0.20L374.56 0.20Q371.60 0.20 369.20-1.16Q366.80-2.52 365.44-4.96Q364.08-7.40 364.08-10.52L364.08-10.52Q364.08-13.64 365.44-16.08Q366.80-18.52 369.20-19.86Q371.60-21.20 374.56-21.20L374.56-21.20Q377.12-21.20 379.18-20.14Q381.24-19.08 382.56-17.04L382.56-17.04L382.56-29.68ZM374.80-2.32Q377.00-2.32 378.78-3.34Q380.56-4.36 381.58-6.24Q382.60-8.12 382.60-10.52L382.60-10.52Q382.60-12.92 381.58-14.80Q380.56-16.68 378.78-17.70Q377.00-18.72 374.80-18.72L374.80-18.72Q372.56-18.72 370.78-17.70Q369.00-16.68 367.98-14.80Q366.96-12.92 366.96-10.52L366.96-10.52Q366.96-8.12 367.98-6.24Q369.00-4.36 370.78-3.34Q372.56-2.32 374.80-2.32L374.80-2.32Z M412.88-10.52L412.84-9.64L395.24-9.64Q395.48-6.36 397.76-4.34Q400.04-2.32 403.52-2.32L403.52-2.32Q405.48-2.32 407.12-3.02Q408.76-3.72 409.96-5.08L409.96-5.08L411.56-3.24Q410.16-1.56 408.06-0.68Q405.96 0.20 403.44 0.20L403.44 0.20Q400.20 0.20 397.70-1.18Q395.20-2.56 393.80-5Q392.40-7.44 392.40-10.52L392.40-10.52Q392.40-13.60 393.74-16.04Q395.08-18.48 397.42-19.84Q399.76-21.20 402.68-21.20L402.68-21.20Q405.60-21.20 407.92-19.84Q410.24-18.48 411.56-16.06Q412.88-13.64 412.88-10.52L412.88-10.52ZM402.68-18.76Q399.64-18.76 397.58-16.82Q395.52-14.88 395.24-11.76L395.24-11.76L410.16-11.76Q409.88-14.88 407.82-16.82Q405.76-18.76 402.68-18.76L402.68-18.76Z"/></g>
</svg>
</g></svg>