<svg width="106" height="107" viewBox="0 0 106 107" fill="none" xmlns="http://www.w3.org/2000/svg">
<g filter="url(#filter0_d_431_598)">
<circle cx="53" cy="50" r="49" fill="white"/>
</g>
<path d="M11 48L11.9443 51.0557H15L12.5279 52.9443L13.4721 56L11 54.1115L8.52786 56L9.47213 52.9443L7 51.0557H10.0557L11 48Z" fill="#46F8A3"/>
<path d="M96 48L96.9443 51.0557H100L97.5279 52.9443L98.4721 56L96 54.1115L93.5279 56L94.4721 52.9443L92 51.0557H95.0557L96 48Z" fill="#46F8A3"/>
<path d="M15.7123 39.8137C15.491 40.4373 15.1546 40.9253 14.703 41.2778C14.2485 41.6292 13.7188 41.8381 13.114 41.9043C12.5074 41.9667 11.8661 41.878 11.1903 41.6382C10.5174 41.3994 9.96362 41.0642 9.529 40.6324C9.09251 40.1967 8.80404 39.7073 8.66358 39.1644C8.52126 38.6175 8.55249 38.0555 8.75728 37.4783C8.88591 37.1157 9.07663 36.7899 9.32943 36.5008C9.57933 36.2106 9.88794 35.9805 10.2553 35.8104C10.6207 35.6363 11.0372 35.5441 11.5046 35.5336C11.9691 35.5221 12.4813 35.6156 13.0411 35.8142L13.424 35.9501L11.5716 41.171L10.8885 40.9286L12.46 36.4995C12.0307 36.3472 11.6141 36.2974 11.21 36.35C10.8042 36.3986 10.4466 36.5412 10.1374 36.7776C9.82922 37.0112 9.60411 37.3281 9.4621 37.7284C9.31185 38.1518 9.29273 38.5647 9.40474 38.9669C9.51675 39.3691 9.72597 39.7275 10.0324 40.0419C10.3399 40.3535 10.7135 40.5889 11.1534 40.7482L11.5623 40.8933C12.0931 41.0817 12.5896 41.155 13.0518 41.1132C13.5121 41.0675 13.9113 40.9136 14.2492 40.6514C14.5872 40.3893 14.8385 40.0261 15.0031 39.5621C15.1153 39.2459 15.1643 38.9514 15.15 38.6786C15.1368 38.4029 15.0764 38.1544 14.9687 37.9334C14.8591 37.7083 14.7192 37.5183 14.5489 37.3632L15.0491 36.7128C15.2944 36.9141 15.4948 37.173 15.6503 37.4894C15.8069 37.803 15.8964 38.158 15.919 38.5546C15.9397 38.9473 15.8708 39.367 15.7123 39.8137Z" fill="black"/>
<path d="M21.5176 29.0268C21.1332 29.531 20.6722 29.8742 20.1346 30.0565C19.5989 30.2363 19.0336 30.262 18.4388 30.1336C17.8439 30.0051 17.2663 29.7273 16.7058 29.3C16.1405 28.8689 15.7168 28.3815 15.4349 27.8376C15.1548 27.2912 15.0317 26.7369 15.0657 26.1745C15.0973 25.6103 15.3006 25.0822 15.6756 24.5903C15.963 24.2134 16.2967 23.9279 16.6768 23.734C17.0545 23.5381 17.451 23.4418 17.8665 23.4451C18.2814 23.4441 18.6834 23.5513 19.0726 23.7667L18.5688 24.4275C18.1983 24.2535 17.8007 24.2116 17.3759 24.3018C16.9505 24.3877 16.5848 24.6313 16.2788 25.0327C16.0045 25.3925 15.8598 25.7853 15.8447 26.2111C15.8272 26.6351 15.9325 27.0579 16.1607 27.4795C16.3882 27.8968 16.7296 28.279 17.1848 28.626C17.6425 28.975 18.1054 29.2079 18.5735 29.3249C19.0392 29.44 19.4756 29.436 19.8829 29.313C20.292 29.1876 20.6374 28.9401 20.9192 28.5706C21.1095 28.3209 21.2365 28.0579 21.3003 27.7814C21.3634 27.5006 21.3613 27.2242 21.2939 26.9522C21.2283 26.6777 21.0943 26.4246 20.8918 26.1928L21.3956 25.532C21.6985 25.8403 21.9096 26.1928 22.0289 26.5896C22.1477 26.982 22.1664 27.389 22.0849 27.8106C22.0052 28.2298 21.8161 28.6352 21.5176 29.0268Z" fill="black"/>
<path d="M30.3882 20.4598C29.8858 20.8101 29.3526 20.9925 28.7886 21.0069C28.227 21.0195 27.6811 20.8768 27.1506 20.5789C26.6184 20.2784 26.1463 19.8328 25.7343 19.2421C25.3189 18.6463 25.0621 18.0468 24.9641 17.4435C24.8643 16.8377 24.9183 16.2748 25.1259 15.7548C25.3344 15.2305 25.6898 14.7931 26.1921 14.4428C26.6945 14.0925 27.2264 13.911 27.788 13.8984C28.3495 13.8858 28.8964 14.0297 29.4286 14.3302C29.9633 14.6289 30.4384 15.0761 30.8539 15.6719C31.2658 16.2626 31.5208 16.8596 31.6188 17.4629C31.7151 18.0636 31.659 18.6262 31.4506 19.1505C31.2447 19.673 30.8905 20.1095 30.3882 20.4598ZM29.9577 19.8426C30.3617 19.5609 30.628 19.2138 30.7568 18.8013C30.8856 18.3888 30.8961 17.9519 30.7883 17.4905C30.6829 17.0274 30.4789 16.5788 30.1761 16.1446C29.8733 15.7104 29.5219 15.3626 29.122 15.1011C28.7246 14.838 28.3092 14.6943 27.8759 14.6701C27.4425 14.6459 27.0238 14.7746 26.6199 15.0563C26.2185 15.3362 25.9531 15.6845 25.8235 16.1013C25.6964 16.5163 25.6865 16.9567 25.7935 17.4223C25.9032 17.8862 26.1094 18.3352 26.4122 18.7694C26.715 19.2036 27.0642 19.551 27.4598 19.8117C27.858 20.0706 28.2729 20.2109 28.7045 20.2325C29.1361 20.2542 29.5538 20.1242 29.9577 19.8426Z" fill="black"/>
<path d="M38.2674 11.1961L39.5708 15.4319L38.7854 15.6736L36.7 8.89625L37.4633 8.66137L37.7905 9.72474L37.8611 9.70302C37.9132 9.30704 38.0747 8.95303 38.3458 8.641C38.6189 8.32512 39.004 8.0907 39.5012 7.93773C39.9571 7.79744 40.3866 7.76994 40.7896 7.85525C41.1946 7.9367 41.5493 8.13186 41.8536 8.44072C42.1609 8.74867 42.3969 9.17033 42.5616 9.70569L43.9125 14.096L43.1271 14.3376L41.7912 9.9959C41.6201 9.43994 41.3289 9.04815 40.9175 8.82053C40.5091 8.59199 40.0446 8.55783 39.5239 8.71804C39.168 8.82756 38.8753 9.00134 38.6459 9.23938C38.4164 9.47742 38.2652 9.76547 38.1921 10.1035C38.121 10.4377 38.1461 10.8019 38.2674 11.1961Z" fill="black"/>
<path d="M53.6751 13.1927C53.0627 13.1853 52.5229 13.0235 52.0558 12.707C51.5917 12.3906 51.2306 11.9569 50.9725 11.406C50.7144 10.852 50.5897 10.2149 50.5983 9.49478C50.607 8.76851 50.7469 8.13152 51.0182 7.58382C51.2894 7.03304 51.6608 6.60658 52.1322 6.30442C52.6068 5.99922 53.1503 5.85028 53.7627 5.85759C54.3751 5.8649 54.9133 6.02676 55.3774 6.34317C55.8415 6.65958 56.2025 7.09479 56.4606 7.64881C56.7218 8.20287 56.848 8.84303 56.8393 9.56931C56.8307 10.2894 56.6908 10.9233 56.4196 11.471C56.1484 12.0157 55.7755 12.4406 55.3009 12.7458C54.8295 13.051 54.2875 13.2 53.6751 13.1927ZM53.6841 12.4402C54.1765 12.4461 54.5951 12.3187 54.9398 12.0582C55.2846 11.7976 55.5473 11.4483 55.7279 11.0103C55.9117 10.5724 56.0067 10.0888 56.013 9.55944C56.0194 9.03012 55.9359 8.54282 55.7627 8.09754C55.5926 7.6523 55.3383 7.29377 54.9999 7.02195C54.6615 6.75013 54.2462 6.61129 53.7538 6.60541C53.2645 6.59956 52.8459 6.72845 52.498 6.99207C52.1532 7.25573 51.8889 7.60807 51.7051 8.04909C51.5244 8.49014 51.4309 8.97533 51.4246 9.50465C51.4183 10.034 51.5002 10.5197 51.6703 10.9619C51.8436 11.4041 52.0994 11.7596 52.4379 12.0283C52.7763 12.297 53.1917 12.4343 53.6841 12.4402Z" fill="black"/>
<path d="M63.2725 13.9801L65.8376 7.36939L66.5822 7.65831L66.1881 8.67401L66.2569 8.70073C66.5214 8.41051 66.845 8.22741 67.2277 8.15143C67.6144 8.0737 68.0244 8.11889 68.4576 8.28701C68.9138 8.46403 69.2465 8.71692 69.4557 9.04567C69.6688 9.37267 69.7762 9.75106 69.7778 10.1808L69.8337 10.2025C70.1254 9.89318 70.4809 9.69603 70.9001 9.61111C71.3233 9.52442 71.7759 9.5746 72.2579 9.76164C72.8719 9.9999 73.2816 10.3817 73.4871 10.9071C73.6937 11.4297 73.6534 12.0611 73.3661 12.8013L71.6477 17.2299L70.8816 16.9327L72.6001 12.504C72.8027 11.9818 72.8213 11.5384 72.6557 11.1738C72.4902 10.8092 72.1894 10.5422 71.7533 10.373C71.2483 10.177 70.7994 10.1811 70.4066 10.3852C70.0138 10.5893 69.7249 10.9295 69.5401 11.4058L67.8517 15.757L67.0684 15.453L68.8136 10.9555C68.9873 10.5079 69.0028 10.098 68.86 9.72568C68.7173 9.35338 68.4192 9.07927 67.9659 8.90336C67.6618 8.78534 67.3588 8.75362 67.057 8.80818C66.7581 8.86386 66.4866 8.99784 66.2425 9.21012C66.0023 9.42065 65.8154 9.69806 65.6818 10.0424L64.0385 14.2773L63.2725 13.9801Z" fill="black"/>
<path d="M77.8709 21.4028L82.3329 15.8918L82.9752 16.4117L78.5132 21.9228L77.8709 21.4028ZM83.4263 15.2089C83.2948 15.1024 83.2182 14.9671 83.1966 14.8031C83.1769 14.6367 83.2183 14.4901 83.321 14.3633C83.4236 14.2365 83.5574 14.1666 83.7223 14.1537C83.8892 14.1383 84.0384 14.1839 84.17 14.2904C84.3016 14.3969 84.3772 14.5334 84.3969 14.6998C84.4185 14.8638 84.378 15.0092 84.2754 15.136C84.1727 15.2628 84.038 15.3338 83.8711 15.3492C83.7061 15.3622 83.5579 15.3154 83.4263 15.2089Z" fill="black"/>
<path d="M83.9411 27.0882L84.4634 26.6998L91.4069 26.6448L91.455 26.609L89.1134 23.4603L89.7357 22.9974L92.7082 26.9944L92.1637 27.3994L85.2865 27.4971L85.2384 27.533L87.7288 30.8817L87.1065 31.3445L83.9411 27.0882Z" fill="black"/>
<path d="M90.9702 39.7227C90.749 39.0991 90.7026 38.5081 90.8311 37.9498C90.9624 37.3905 91.242 36.8945 91.6698 36.4619C92.1015 36.0312 92.6553 35.6959 93.3311 35.4561C94.004 35.2174 94.6453 35.1286 95.2548 35.1899C95.8683 35.2531 96.4007 35.4512 96.8519 35.7842C97.3071 36.1191 97.6371 36.5751 97.8419 37.1523C97.9705 37.5149 98.0278 37.8881 98.0138 38.2719C98.0026 38.6546 97.9081 39.0278 97.7301 39.3914C97.5561 39.7569 97.2909 40.091 96.9346 40.3937C96.5812 40.6954 96.1246 40.9456 95.5648 41.1442L95.1819 41.2801L93.3296 36.0592L94.0126 35.8168L95.5841 40.2459C96.0133 40.0936 96.3682 39.8697 96.6487 39.5742C96.9332 39.2806 97.1209 38.9446 97.212 38.5662C97.3041 38.1906 97.2791 37.8027 97.1371 37.4024C96.9868 36.9789 96.7415 36.6464 96.401 36.4047C96.0605 36.163 95.6722 36.0166 95.2361 35.9656C94.8011 35.9175 94.3626 35.9702 93.9207 36.1238L93.5117 36.2689C92.9809 36.4572 92.5493 36.7132 92.2167 37.0369C91.8881 37.3625 91.6752 37.7336 91.5781 38.1501C91.481 38.5667 91.5147 39.007 91.6794 39.4711C91.7916 39.7872 91.9392 40.0467 92.1222 40.2496C92.3062 40.4553 92.5097 40.6101 92.7326 40.7138C92.9595 40.8195 93.188 40.8789 93.4179 40.892L93.4395 41.7121C93.1222 41.7104 92.8034 41.6358 92.4832 41.4881C92.1641 41.3434 91.8708 41.1241 91.6033 40.8304C91.3397 40.5386 91.1287 40.1693 90.9702 39.7227Z" fill="black"/>
<path d="M22.297 73.8173L21.7206 74.1397L19.9703 71.5526L20.5467 71.2302L22.297 73.8173ZM22.4622 71.2729L22.8896 71.9047L17.2997 75.0312C17.0617 75.1643 16.9008 75.3078 16.8169 75.4618C16.7356 75.6143 16.7086 75.7689 16.7359 75.9255C16.7657 76.0807 16.8284 76.2289 16.9239 76.3701C16.9796 76.4524 17.0324 76.5202 17.0821 76.5735C17.1343 76.6254 17.1817 76.6702 17.2243 76.708L16.7163 77.177C16.6501 77.1297 16.5768 77.0669 16.4965 76.9886C16.4137 76.9117 16.3277 76.8073 16.2386 76.6755C16.0826 76.445 15.9854 76.1928 15.9472 75.919C15.9105 75.6476 15.9514 75.3847 16.0698 75.1304C16.1883 74.8761 16.4037 74.6615 16.7161 74.4868L22.4622 71.2729Z" fill="black"/>
<path d="M21.6172 83.1828L26.3377 78.6485L26.8965 79.1294L26.1712 79.8261L26.2132 79.8622C26.5499 79.7192 26.9137 79.6834 27.3047 79.7549C27.6998 79.8264 28.0535 79.9964 28.3657 80.2651C28.4131 80.3059 28.4648 80.3523 28.5209 80.4043C28.577 80.4563 28.6234 80.5 28.6601 80.5353L28.1038 81.0696C28.0821 81.0434 28.043 80.9986 27.9866 80.9351C27.9302 80.8717 27.8643 80.8075 27.789 80.7426C27.5306 80.5203 27.2479 80.3722 26.9411 80.2983C26.6384 80.2244 26.3377 80.2249 26.0391 80.3C25.7405 80.3751 25.4744 80.5248 25.2408 80.7492L22.1922 83.6776L21.6172 83.1828Z" fill="black"/>
<path d="M30.2969 89.6835L33.8006 84.1547L34.4763 84.5087L30.9726 90.0375L30.2969 89.6835ZM34.7463 83.3844C34.6079 83.3119 34.5177 83.2056 34.4759 83.0654C34.4355 82.9228 34.4556 82.7879 34.5362 82.6607C34.6168 82.5335 34.7343 82.4512 34.8887 82.4139C35.0446 82.3741 35.1918 82.3905 35.3302 82.463C35.4686 82.5355 35.558 82.643 35.5984 82.7856C35.6402 82.9258 35.6209 83.0595 35.5403 83.1867C35.4597 83.3139 35.3414 83.3974 35.1855 83.4371C35.0311 83.4745 34.8847 83.4569 34.7463 83.3844Z" fill="black"/>
<path d="M38.6369 93.52L40.9809 85.1134L41.7242 85.2847L40.8028 88.5891L40.8693 88.6044C41.005 88.4347 41.1782 88.2679 41.3889 88.1038C41.6024 87.9404 41.8552 87.8211 42.1473 87.7457C42.4429 87.6682 42.7858 87.6744 43.1762 87.7644C43.6994 87.885 44.1208 88.1278 44.4403 88.4927C44.7607 88.8549 44.9633 89.3064 45.0481 89.8473C45.1338 90.3854 45.0862 90.9788 44.9054 91.6273C44.7237 92.2786 44.4539 92.8237 44.0959 93.2625C43.7406 93.7019 43.3269 94.0128 42.8547 94.1952C42.3853 94.3782 41.8904 94.4098 41.3699 94.2898C40.9824 94.2004 40.6775 94.0574 40.4555 93.8606C40.2362 93.6644 40.0755 93.4482 39.9734 93.2121C39.8721 92.9732 39.8052 92.7481 39.7728 92.5368L39.6814 92.5157L39.3552 93.6856L38.6369 93.52ZM40.2456 90.5401C40.1036 91.0491 40.0539 91.5181 40.0962 91.9473C40.1422 92.3744 40.2778 92.7333 40.5031 93.024C40.732 93.3127 41.0527 93.5046 41.4651 93.5996C41.8887 93.6973 42.2792 93.665 42.6368 93.5028C42.9951 93.3378 43.3053 93.0758 43.5674 92.7169C43.8296 92.3579 44.0289 91.9335 44.1655 91.4437C44.3006 90.9593 44.3461 90.5053 44.3022 90.0816C44.2611 89.6586 44.1255 89.2997 43.8954 89.0049C43.666 88.7074 43.3382 88.5095 42.9119 88.4112C42.4966 88.3155 42.1127 88.345 41.7603 88.4996C41.4113 88.6522 41.1065 88.9052 40.8459 89.2587C40.5861 89.6094 40.386 90.0366 40.2456 90.5401Z" fill="black"/>
<path d="M57.0174 92.8194L56.6692 88.7904L57.4258 88.7363L57.9893 95.2575L57.2328 95.3115L57.1392 94.2289L57.0797 94.2331C56.9555 94.5781 56.7373 94.8742 56.4251 95.1214C56.1127 95.3659 55.717 95.5052 55.2381 95.5394C54.8215 95.5692 54.4439 95.505 54.1052 95.347C53.7663 95.1861 53.4894 94.9353 53.2747 94.5947C53.0599 94.254 52.9303 93.8262 52.8858 93.311L52.5207 89.0867L53.2773 89.0327L53.6383 93.2103C53.6823 93.7197 53.868 94.1194 54.1953 94.4093C54.5223 94.6964 54.921 94.8231 55.3914 94.7895C55.6861 94.7684 55.9634 94.6774 56.2232 94.5165C56.483 94.3555 56.689 94.1329 56.8412 93.8486C56.9931 93.5615 57.0519 93.2185 57.0174 92.8194Z" fill="black"/>
<path d="M66.3537 86.4403L66.6102 87.049L63.6605 88.0766L63.404 87.4679L66.3537 86.4403ZM63.7166 85.7018L64.4369 85.4508L66.9242 91.353C67.0301 91.6043 67.1576 91.7865 67.3068 91.8997C67.4549 92.0102 67.6128 92.0708 67.7803 92.0815C67.9468 92.0895 68.1105 92.0655 68.2715 92.0095C68.3654 91.9767 68.4436 91.9435 68.5063 91.9096C68.5679 91.8732 68.6214 91.8395 68.6668 91.8087L69.0862 92.3876C69.0274 92.4381 68.9515 92.4916 68.8584 92.548C68.7664 92.6071 68.6453 92.6628 68.495 92.7152C68.2321 92.8068 67.9549 92.8388 67.6633 92.8113C67.3744 92.7828 67.1053 92.6844 66.8559 92.5161C66.6065 92.3478 66.4123 92.0987 66.2733 91.7689L63.7166 85.7018Z" fill="black"/>
<path d="M78.7399 87.1833C78.2801 87.5121 77.7795 87.6945 77.2382 87.7303C76.6993 87.7645 76.165 87.6614 75.6355 87.4211C75.104 87.1786 74.6209 86.806 74.1859 86.3032C73.7473 85.7962 73.461 85.2793 73.327 84.7526C73.1912 84.2237 73.206 83.7263 73.3714 83.2602C73.5372 82.7904 73.8501 82.391 74.3099 82.0622C74.7698 81.7333 75.2692 81.5518 75.8081 81.5176C76.3471 81.4834 76.8823 81.5876 77.4137 81.83C77.9474 82.0709 78.4336 82.4448 78.8723 82.9519C79.3072 83.4546 79.5916 83.9694 79.7256 84.4961C79.8577 85.0206 79.8408 85.5178 79.675 85.9877C79.5115 86.4559 79.1998 86.8544 78.7399 87.1833ZM78.2855 86.6579C78.6552 86.3935 78.8884 86.0772 78.9851 85.709C79.0817 85.3408 79.063 84.956 78.929 84.5545C78.7972 84.1514 78.5715 83.7651 78.2518 83.3956C77.9321 83.026 77.5714 82.7345 77.1698 82.5209C76.7704 82.3057 76.3616 82.1964 75.9434 82.1929C75.5252 82.1894 75.1313 82.3199 74.7616 82.5843C74.3941 82.847 74.1619 83.1644 74.0648 83.5364C73.97 83.9068 73.9894 84.2946 74.123 84.6998C74.2589 85.1034 74.4867 85.49 74.8064 85.8595C75.1261 86.2291 75.4847 86.5204 75.8822 86.7334C76.282 86.9448 76.6901 87.0512 77.1064 87.0525C77.5227 87.0539 77.9158 86.9223 78.2855 86.6579Z" fill="black"/>
<path d="M85.0486 72.9891L84.8125 73.6536C84.6042 73.6091 84.3952 73.5971 84.1855 73.6175C83.9758 73.638 83.7719 73.7063 83.5737 73.8225C83.3772 73.9363 83.1929 74.1133 83.0207 74.3534C82.7625 74.7136 82.6411 75.0628 82.6564 75.4008C82.6718 75.7389 82.8224 75.9927 83.1084 76.1621C83.3503 76.3055 83.6033 76.3436 83.8674 76.2764C84.1307 76.2054 84.4247 76.0309 84.7494 75.7529L85.5343 75.0732C85.9686 74.6956 86.3899 74.4699 86.798 74.3959C87.2079 74.3197 87.601 74.3931 87.9774 74.6161C88.2951 74.8044 88.5178 75.0548 88.6454 75.3674C88.7731 75.6799 88.8011 76.0271 88.7293 76.4089C88.6568 76.787 88.4806 77.1712 88.2009 77.5614C87.8285 78.0809 87.3981 78.4361 86.9096 78.6269C86.4186 78.8163 85.9046 78.8193 85.3675 78.6359L85.6381 77.9524C86.0275 78.0746 86.3872 78.0756 86.7172 77.9553C87.0488 77.8327 87.3454 77.589 87.6069 77.2242C87.8999 76.8155 88.0375 76.4316 88.0199 76.0724C87.9998 75.7118 87.8431 75.4446 87.5499 75.2708C87.3226 75.1361 87.0806 75.0947 86.824 75.1466C86.565 75.1971 86.2946 75.3461 86.0127 75.5935L85.1696 76.3325C84.7212 76.7248 84.2905 76.9564 83.8775 77.0275C83.4644 77.0985 83.0697 77.0225 82.6933 76.7995C82.3829 76.6155 82.1675 76.3744 82.0471 76.076C81.9242 75.7762 81.8957 75.4468 81.9616 75.0877C82.0274 74.7287 82.1886 74.3702 82.4452 74.0123C82.7944 73.5252 83.1906 73.2056 83.6338 73.0537C84.0761 72.8981 84.5478 72.8765 85.0486 72.9891Z" fill="black"/>
<path fill-rule="evenodd" clip-rule="evenodd" d="M72.4628 24C71.8976 24 71.4397 24.4526 71.4397 25.0112V30.3495H65.7326C65.1674 30.3495 64.7095 30.8021 64.7095 31.3607C64.7095 31.9194 65.1674 32.372 65.7326 32.372H71.4397V38.0127C71.4397 38.5714 71.8976 39.024 72.4628 39.024C73.0275 39.024 73.486 38.5714 73.486 38.0127V32.372H78.8871C79.4523 32.372 79.9102 31.9194 79.9102 31.3607C79.9102 30.8021 79.4523 30.3495 78.8871 30.3495H73.486V25.0112C73.486 24.4526 73.0275 24 72.4628 24ZM62.0158 27.862C62.2019 27.3344 61.9198 26.7583 61.3866 26.5743C58.6484 25.6319 55.7697 25.1523 52.8704 25.1556C38.6049 25.1556 27 36.6256 27 50.7253C27 64.8249 38.6049 76.2949 52.8704 76.2949C67.1359 76.2949 78.7409 64.8249 78.7409 50.7253C78.7472 47.3434 78.0706 43.9943 76.75 40.8743C76.6113 40.5379 76.3001 40.3004 75.9358 40.253C75.571 40.2061 75.2085 40.3557 74.9864 40.6451C74.7648 40.9352 74.7169 41.3206 74.8619 41.6547C76.078 44.5275 76.7009 47.6114 76.6946 50.7253C76.6946 63.7093 66.0072 74.2724 52.8704 74.2724C39.7337 74.2724 29.0462 63.7093 29.0462 50.7253C29.0462 37.7413 39.7337 27.1781 52.8704 27.1781C55.5402 27.1747 58.1916 27.616 60.7129 28.4839C61.2461 28.6679 61.8296 28.3891 62.0158 27.862ZM57.2456 45.2685C57.2427 42.8815 55.2855 40.9471 52.8705 40.9443V40.9448C51.3015 40.9358 49.8473 41.758 49.0606 43.0993C48.2733 44.4412 48.2733 46.0963 49.0606 47.4382C49.8473 48.7796 51.3015 49.6018 52.8705 49.5927C56.2173 49.5933 59.0029 52.1349 59.2701 55.4321C59.5379 58.7293 57.1976 61.6772 53.8936 62.2043V64.4491C53.8936 65.0078 53.4357 65.4603 52.8705 65.4603C52.3052 65.4603 51.8473 65.0078 51.8473 64.4491V62.2043C48.738 61.7043 46.4531 59.0521 46.4491 55.9389C46.4491 55.3802 46.907 54.9276 47.4722 54.9276C48.0375 54.9276 48.4954 55.3802 48.4954 55.9389C48.4982 58.3061 50.4246 60.2321 52.8197 60.262C52.8368 60.2609 52.8533 60.2592 52.8705 60.2592C52.8876 60.2592 52.9042 60.2609 52.9213 60.262C55.3272 60.2343 57.2593 58.2914 57.245 55.9135C57.2313 53.5349 55.2764 51.6146 52.8705 51.6146C49.5242 51.6135 46.7397 49.0724 46.4725 45.7758C46.2047 42.4786 48.5439 39.5318 51.8473 39.0031V37.0015C51.8473 36.4428 52.3052 35.9903 52.8705 35.9903C53.4357 35.9903 53.8936 36.4428 53.8936 37.0015V39.0031C57.0024 39.503 59.2878 42.1552 59.2918 45.2685C59.2918 45.8272 58.8339 46.2797 58.2687 46.2797C57.7035 46.2797 57.2456 45.8272 57.2456 45.2685Z" fill="url(#paint0_linear_431_598)"/>
<defs>
<filter id="filter0_d_431_598" x="0" y="1" width="106" height="106" filterUnits="userSpaceOnUse" color-interpolation-filters="sRGB">
<feFlood flood-opacity="0" result="BackgroundImageFix"/>
<feColorMatrix in="SourceAlpha" type="matrix" values="0 0 0 0 0 0 0 0 0 0 0 0 0 0 0 0 0 0 127 0" result="hardAlpha"/>
<feOffset dy="4"/>
<feGaussianBlur stdDeviation="2"/>
<feComposite in2="hardAlpha" operator="out"/>
<feColorMatrix type="matrix" values="0 0 0 0 0.533333 0 0 0 0 0.741176 0 0 0 0 0.968627 0 0 0 0.25 0"/>
<feBlend mode="normal" in2="BackgroundImageFix" result="effect1_dropShadow_431_598"/>
<feBlend mode="normal" in="SourceGraphic" in2="effect1_dropShadow_431_598" result="shape"/>
</filter>
<linearGradient id="paint0_linear_431_598" x1="53.4551" y1="24" x2="53.4551" y2="76.2949" gradientUnits="userSpaceOnUse">
<stop stop-color="#18C19F"/>
<stop offset="1" stop-color="#8BF3AF"/>
</linearGradient>
</defs>
</svg>
