<svg width="100" height="103" viewBox="0 0 100 103" fill="none" xmlns="http://www.w3.org/2000/svg">
<g filter="url(#filter0_d_1004_942)">
<circle cx="50" cy="49" r="46" fill="white"/>
<rect x="23.5" y="22.5" width="53" height="53" rx="26.5" fill="white"/>
<rect x="23.5" y="22.5" width="53" height="53" rx="26.5" stroke="#F8F7F7" stroke-width="5"/>
<path d="M14.2946 34.6911C14.5011 34.7492 14.6838 34.8149 14.8428 34.8884L13.6596 39.094C14.1085 39.1843 14.5074 39.1205 14.8562 38.9024C15.205 38.6843 15.4394 38.3621 15.5593 37.9359C15.7317 37.3232 15.5971 36.8182 15.1555 36.4209L15.5011 35.1922C15.9604 35.5011 16.2914 35.9212 16.4941 36.4525C16.692 36.9753 16.7 37.5597 16.5183 38.2057C16.3703 38.7318 16.1207 39.1719 15.7696 39.5259C15.4137 39.8713 14.9889 40.104 14.4952 40.2238C13.9968 40.3351 13.4645 40.3111 12.8985 40.1519C12.3324 39.9926 11.8681 39.7398 11.5056 39.3935C11.1383 39.0386 10.8962 38.6219 10.7792 38.1435C10.6642 37.6583 10.6825 37.1461 10.8343 36.6066C10.9804 36.0872 11.2239 35.6562 11.5646 35.3137C11.9053 34.9711 12.314 34.7447 12.7906 34.6345C13.2605 34.5223 13.7619 34.5412 14.2946 34.6911ZM13.6006 35.7786C13.1791 35.6673 12.8007 35.7225 12.4652 35.9443C12.1297 36.1661 11.901 36.4935 11.7792 36.9264C11.6687 37.3193 11.7006 37.6912 11.875 38.0421C12.0427 38.3911 12.3322 38.6522 12.7434 38.8254L13.6006 35.7786Z" fill="black"/>
<path d="M17.3443 28.2905C16.8608 27.9559 16.5038 27.5659 16.2736 27.1206C16.0416 26.6656 15.9461 26.1957 15.9871 25.7109C16.0281 25.2261 16.204 24.759 16.515 24.3095C16.9086 23.7406 17.3699 23.3657 17.8989 23.1849C18.4261 22.9944 18.9853 23.007 19.5764 23.2225L18.8502 24.2722C18.5579 24.1961 18.2813 24.2067 18.0206 24.3039C17.7598 24.4011 17.5311 24.5919 17.3342 24.8764C17.0587 25.2746 16.9805 25.6916 17.0996 26.1274C17.217 26.5535 17.5288 26.9417 18.0352 27.2921C18.5415 27.6424 19.0176 27.7994 19.4634 27.7629C19.9132 27.7208 20.2759 27.5006 20.5514 27.1024C20.9411 26.5392 20.9515 25.9953 20.5825 25.4708L21.3088 24.4211C21.6922 24.8883 21.8962 25.4081 21.9209 25.9804C21.9398 26.5487 21.7564 27.1117 21.3707 27.6692C21.0597 28.1187 20.6846 28.448 20.2453 28.6573C19.8004 28.8626 19.327 28.9389 18.8251 28.8861C18.3215 28.8236 17.8279 28.6251 17.3443 28.2905Z" fill="black"/>
<path d="M29.4722 19.1963C29.0376 19.5161 28.573 19.7077 28.0784 19.7711C27.5798 19.8289 27.099 19.7533 26.6359 19.5443C26.1688 19.3298 25.7609 18.9857 25.4124 18.5121C25.0679 18.0441 24.8655 17.5531 24.8051 17.0392C24.7447 16.5253 24.821 16.0396 25.0341 15.5822C25.2471 15.1247 25.5737 14.734 26.0139 14.41C26.4541 14.0861 26.9242 13.8904 27.4243 13.8229C27.9245 13.7555 28.4109 13.827 28.8836 14.0374C29.3563 14.2479 29.7649 14.5871 30.1093 15.0551C30.4538 15.5231 30.6535 16.0161 30.7083 16.5341C30.7631 17.0521 30.6805 17.5467 30.4604 18.018C30.2417 18.4795 29.9123 18.8723 29.4722 19.1963ZM28.8632 18.3689C29.1083 18.1884 29.2937 17.9618 29.4193 17.689C29.5505 17.412 29.5969 17.1073 29.5583 16.7749C29.5198 16.4425 29.3775 16.1091 29.1315 15.7748C28.8855 15.4405 28.6143 15.2063 28.318 15.0722C28.0176 14.9325 27.7185 14.882 27.4207 14.9209C27.1228 14.9597 26.8513 15.0693 26.6062 15.2497C26.361 15.4302 26.1756 15.6568 26.05 15.9297C25.93 16.1984 25.8948 16.4949 25.9444 16.8191C25.99 17.1378 26.1358 17.4643 26.3818 17.7986C26.7468 18.2944 27.1551 18.5866 27.6068 18.6751C28.0599 18.7539 28.4787 18.6518 28.8632 18.3689Z" fill="black"/>
<path d="M38.451 8.10363C38.8802 7.96926 39.291 7.93849 39.6835 8.01132C40.0826 8.08208 40.4327 8.26244 40.7337 8.5524C41.0348 8.84236 41.2628 9.23492 41.4178 9.73007L42.4256 12.9486L41.3066 13.299L40.3515 10.2488C40.1985 9.76027 39.9596 9.42549 39.6347 9.2445C39.3077 9.0569 38.933 9.02926 38.5104 9.16156C38.0879 9.29386 37.7925 9.53133 37.6244 9.87397C37.4607 10.2079 37.4554 10.6192 37.6083 11.1078L38.5634 14.1579L37.4344 14.5114L35.7259 9.0548L36.8548 8.7013L37.0502 9.32519C37.1648 9.04284 37.3443 8.7945 37.589 8.58017C37.8402 8.36377 38.1275 8.20493 38.451 8.10363Z" fill="black"/>
<path d="M51.3585 12.1787C50.819 12.1638 50.3348 12.0293 49.9058 11.7752C49.477 11.5143 49.1443 11.159 48.9075 10.7096C48.671 10.2532 48.5608 9.7311 48.577 9.14328C48.593 8.56238 48.7352 8.0507 49.0035 7.60825C49.2717 7.16581 49.6305 6.82967 50.0798 6.59983C50.5291 6.37 51.0269 6.26263 51.5732 6.2777C52.1195 6.29278 52.6106 6.42744 53.0466 6.6817C53.4825 6.93595 53.8222 7.29137 54.0656 7.74794C54.3091 8.20451 54.4228 8.72324 54.4068 9.30415C54.3908 9.88505 54.2452 10.3966 53.97 10.8389C53.6948 11.2811 53.3255 11.6205 52.8622 11.8568C52.406 12.0865 51.9048 12.1937 51.3585 12.1787ZM51.3868 11.1517C51.6911 11.1601 51.9766 11.0953 52.2434 10.9573C52.5171 10.8196 52.741 10.6077 52.915 10.3219C53.089 10.036 53.1817 9.68559 53.1931 9.27066C53.2046 8.85573 53.1347 8.5043 52.9834 8.21637C52.8324 7.92153 52.6275 7.69787 52.3687 7.54539C52.1099 7.39292 51.8284 7.31248 51.5241 7.30408C51.2198 7.29569 50.9343 7.36048 50.6675 7.49845C50.4076 7.63662 50.1976 7.84883 50.0374 8.13508C49.8775 8.41442 49.7918 8.76155 49.7803 9.17649C49.7633 9.79197 49.9058 10.2734 50.2076 10.6209C50.5166 10.9616 50.9096 11.1385 51.3868 11.1517Z" fill="black"/>
<path d="M69.2295 10.6342C69.6412 10.815 69.9711 11.0618 70.219 11.3747C70.4733 11.6904 70.6186 12.0564 70.6548 12.4728C70.6974 12.892 70.6144 13.3391 70.4058 13.8142L69.0497 16.9021L67.976 16.4306L69.2612 13.5042C69.467 13.0354 69.507 12.6261 69.3811 12.2761C69.258 11.9198 68.9938 11.6527 68.5884 11.4747C68.183 11.2966 67.8043 11.2814 67.4523 11.4291C67.1095 11.5732 66.8351 11.8797 66.6293 12.3484L65.3441 15.2748L64.2705 14.8033L65.5556 11.8769C65.7615 11.4082 65.8015 10.9988 65.6756 10.6488C65.5525 10.2926 65.2882 10.0254 64.8828 9.84737C64.4774 9.66934 64.0988 9.65416 63.7468 9.80183C63.4039 9.94594 63.1296 10.2524 62.9237 10.7211L61.6386 13.6475L60.5554 13.1719L62.8545 7.93659L63.9377 8.41226L63.6748 9.01085C63.9467 8.87337 64.2453 8.80426 64.5705 8.80352C64.8958 8.80278 65.2136 8.87056 65.5239 9.00687C65.942 9.19046 66.2768 9.44326 66.5283 9.76527C66.7798 10.0873 66.9205 10.4551 66.9504 10.8687C67.2479 10.6215 67.6048 10.4798 68.0212 10.4435C68.4403 10.4009 68.8431 10.4645 69.2295 10.6342Z" fill="black"/>
<path d="M78.9556 16.6235C78.7979 16.4781 78.7149 16.3028 78.7065 16.0975C78.6982 15.8922 78.7667 15.7107 78.9121 15.553C79.0575 15.3954 79.2328 15.3124 79.4381 15.304C79.6434 15.2957 79.8249 15.3642 79.9825 15.5096C80.1351 15.6503 80.2156 15.8233 80.2239 16.0285C80.2323 16.2338 80.1637 16.4153 80.0184 16.573C79.873 16.7307 79.6977 16.8137 79.4924 16.822C79.2871 16.8303 79.1081 16.7642 78.9556 16.6235ZM78.8693 17.5743L74.9935 21.7781L74.1237 20.9762L77.9996 16.7724L78.8693 17.5743Z" fill="black"/>
<path d="M80.7627 27.0782L82.1794 29.2515L81.3709 29.7785L79.2062 26.4577L80.0146 25.9307L84.6101 26.0443L83.1877 23.8623L83.9962 23.3352L86.1609 26.6561L85.3525 27.1831L80.7627 27.0782Z" fill="black"/>
<path d="M88.319 39.5404C88.1126 39.5985 87.9224 39.6376 87.7484 39.6578L86.5652 35.4523C86.1351 35.6092 85.828 35.8717 85.644 36.2397C85.4601 36.6076 85.4281 37.0047 85.548 37.4309C85.7204 38.0436 86.0985 38.4044 86.6825 38.5132L87.0282 39.7419C86.4752 39.7178 85.9738 39.5319 85.5238 39.1841C85.0823 38.8412 84.7707 38.3467 84.589 37.7007C84.441 37.1746 84.4245 36.669 84.5396 36.1839C84.6631 35.7035 84.9043 35.2835 85.2631 34.9239C85.6304 34.569 86.0971 34.3119 86.6631 34.1527C87.2292 33.9934 87.7572 33.9671 88.2471 34.0736C88.7456 34.1849 89.1694 34.4142 89.5187 34.7615C89.8698 35.1155 90.1212 35.5622 90.273 36.1016C90.4191 36.6211 90.4361 37.1158 90.324 37.5857C90.2119 38.0557 89.9812 38.4619 89.632 38.8045C89.2895 39.1452 88.8518 39.3905 88.319 39.5404ZM88.3442 38.2505C88.7619 38.1258 89.0561 37.8813 89.2267 37.5171C89.3973 37.1529 89.4217 36.7544 89.3 36.3215C89.1894 35.9286 88.9683 35.6279 88.6365 35.4193C88.3114 35.209 87.9283 35.1371 87.4871 35.2037L88.3442 38.2505Z" fill="black"/>
<path d="M12 43L13.5716 47.8369H18.6574L14.5429 50.8262L16.1145 55.6631L12 52.6738L7.88549 55.6631L9.45709 50.8262L5.34259 47.8369H10.4284L12 43Z" fill="#D9D9D9"/>
<path d="M87.6574 43L89.229 47.8369H94.3148L90.2003 50.8262L91.7719 55.6631L87.6574 52.6738L83.5429 55.6631L85.1145 50.8262L81 47.8369H86.0858L87.6574 43Z" fill="#D9D9D9"/>
</g>
<path d="M29.598 79.3407L27.8653 81.9894C27.7479 82.1688 27.7032 82.3256 27.7312 82.4597C27.7688 82.5918 27.8889 82.7241 28.0916 82.8566L28.6994 83.2543L28.1598 84.0793L27.3782 83.568C26.9324 83.2764 26.659 82.9487 26.558 82.585C26.457 82.2213 26.5598 81.805 26.8666 81.3361L28.5993 78.6874L28.0348 78.3181L28.5632 77.5105L29.1276 77.8798L29.9059 76.6901L30.9046 77.3434L30.1263 78.5331L31.29 79.2943L30.7616 80.102L29.598 79.3407Z" fill="black"/>
<path d="M34.3977 84.1991C34.575 83.6529 34.8438 83.2055 35.2042 82.857C35.5712 82.5106 35.9861 82.2852 36.4491 82.1809C36.9208 82.0722 37.3936 82.0947 37.8673 82.2484C38.2951 82.3872 38.6391 82.5934 38.8994 82.867C39.1685 83.1361 39.3578 83.4267 39.4675 83.7387L39.7238 82.949L40.8589 83.3174L39.094 88.756L37.9589 88.3877L38.2215 87.5783C37.9474 87.773 37.6181 87.9025 37.2335 87.9668C36.849 88.0312 36.4462 87.995 36.025 87.8583C35.5578 87.7067 35.1685 87.4495 34.8572 87.0866C34.5479 86.7171 34.3476 86.2811 34.2561 85.7787C34.1733 85.2718 34.2205 84.7452 34.3977 84.1991ZM38.8429 85.6634C38.9646 85.2883 38.9914 84.937 38.9231 84.6094C38.8615 84.2839 38.7291 84.0082 38.526 83.7823C38.323 83.5564 38.0767 83.3964 37.7871 83.3025C37.4976 83.2085 37.2043 83.1933 36.9073 83.257C36.6124 83.314 36.3411 83.4551 36.0935 83.6802C35.8546 83.9009 35.6743 84.1988 35.5526 84.5738C35.4309 84.9489 35.3998 85.3025 35.4593 85.6346C35.5254 85.9688 35.6589 86.2521 35.8598 86.4846C36.0695 86.7127 36.3158 86.8726 36.5988 86.9644C36.8883 87.0584 37.1816 87.0735 37.4786 87.0099C37.7756 86.9463 38.0447 86.8009 38.2857 86.5736C38.5355 86.3419 38.7212 86.0385 38.8429 85.6634Z" fill="black"/>
<path d="M49.2593 87.22L51.036 90.159L49.6978 90.1267L48.5101 88.1569L47.3013 90.0689L46.0668 90.039L47.9813 87.2722L46.2048 84.3229L47.5431 84.3552L48.7308 86.3249L49.9395 84.413L51.1741 84.4428L49.2593 87.22Z" fill="black"/>
<path d="M56.8162 86.8066C56.6655 86.2525 56.6455 85.731 56.7563 85.242C56.8738 84.7512 57.0977 84.3354 57.428 83.9947C57.7632 83.6454 58.1711 83.4055 58.6518 83.2748C59.0857 83.1568 59.4865 83.141 59.8541 83.2274C60.2266 83.3053 60.5442 83.4448 60.8067 83.6459L60.5889 82.8448L61.7405 82.5316L63.2409 88.0491L62.0893 88.3623L61.866 87.5411C61.7432 87.8541 61.5385 88.1428 61.2519 88.4071C60.9654 88.6715 60.6084 88.8617 60.1812 88.9779C59.7072 89.1068 59.2406 89.1047 58.7814 88.9714C58.3204 88.8315 57.914 88.5764 57.5624 88.206C57.2156 87.8272 56.9668 87.3607 56.8162 86.8066ZM61.3377 85.5985C61.2343 85.218 61.0643 84.9093 60.8278 84.6725C60.598 84.4339 60.3363 84.2756 60.0427 84.1978C59.7491 84.1199 59.4554 84.1209 59.1617 84.2007C58.868 84.2806 58.6142 84.4285 58.4005 84.6443C58.1849 84.8535 58.0352 85.1201 57.9512 85.444C57.8721 85.7595 57.8843 86.1075 57.9878 86.488C58.0912 86.8685 58.2588 87.1814 58.4904 87.4267C58.7286 87.6702 58.9955 87.8342 59.2909 87.9188C59.5912 87.9948 59.8849 87.9938 60.172 87.9158C60.4657 87.8359 60.7194 87.688 60.9332 87.4722C61.1469 87.2563 61.2924 86.9874 61.3697 86.6652C61.4519 86.3346 61.4412 85.979 61.3377 85.5985Z" fill="black"/>
<path d="M72.1646 83.9354C71.7824 84.1725 71.3965 84.3182 71.007 84.3726C70.6196 84.4174 70.2648 84.377 69.9426 84.2512C69.6167 84.1196 69.3567 83.9104 69.1626 83.6238L70.2032 82.9783C70.3485 83.1732 70.5531 83.2864 70.817 83.3181C71.0831 83.3403 71.3514 83.2675 71.6218 83.0998C71.904 82.9248 72.0887 82.7369 72.1759 82.5363C72.2654 82.3261 72.2573 82.1358 72.1515 81.9653C72.0385 81.7831 71.8664 81.7025 71.6353 81.7237C71.4101 81.7413 71.0766 81.8139 70.6347 81.9414C70.2082 82.0676 69.8511 82.1547 69.5635 82.2028C69.2759 82.251 68.9867 82.2309 68.6958 82.1427C68.4109 82.0508 68.1699 81.8461 67.973 81.5286C67.8126 81.2699 67.7432 80.9873 67.7647 80.6809C67.7827 80.3686 67.8945 80.0631 68.1001 79.7646C68.3116 79.4625 68.6025 79.1966 68.9729 78.9668C69.5255 78.6241 70.0569 78.4899 70.5671 78.5642C71.0794 78.629 71.4969 78.8952 71.8194 79.3627L70.8141 79.9862C70.6615 79.7797 70.4658 79.6609 70.2268 79.63C69.9879 79.5992 69.7332 79.6676 69.4627 79.8353C69.1982 79.9994 69.0263 80.1752 68.9472 80.3626C68.8681 80.5501 68.8796 80.7261 68.9817 80.8908C69.0619 81.0201 69.1764 81.0997 69.3252 81.1295C69.474 81.1594 69.6324 81.1588 69.8004 81.1279C69.9648 81.091 70.203 81.0288 70.5149 80.9411C70.926 80.8164 71.2743 80.7347 71.5597 80.6961C71.8473 80.6479 72.1318 80.6669 72.4131 80.7529C72.6944 80.8389 72.9346 81.0359 73.1337 81.3439C73.3051 81.6202 73.3818 81.9145 73.3639 82.2269C73.346 82.5392 73.2342 82.8446 73.0286 83.1431C72.8288 83.438 72.5408 83.7021 72.1646 83.9354Z" fill="black"/>
<circle cx="59" cy="56" r="7.38462" fill="#46F8A3"/>
<circle cx="42.3846" cy="39.3846" r="7.38462" fill="#46F8A3"/>
<line x1="36.8462" y1="61.1716" x2="64.1716" y2="33.8462" stroke="#46F8A3" stroke-width="4" stroke-linecap="round"/>
<defs>
<filter id="filter0_d_1004_942" x="0" y="3" width="100" height="100" filterUnits="userSpaceOnUse" color-interpolation-filters="sRGB">
<feFlood flood-opacity="0" result="BackgroundImageFix"/>
<feColorMatrix in="SourceAlpha" type="matrix" values="0 0 0 0 0 0 0 0 0 0 0 0 0 0 0 0 0 0 127 0" result="hardAlpha"/>
<feOffset dy="4"/>
<feGaussianBlur stdDeviation="2"/>
<feComposite in2="hardAlpha" operator="out"/>
<feColorMatrix type="matrix" values="0 0 0 0 0 0 0 0 0 0 0 0 0 0 0 0 0 0 0.25 0"/>
<feBlend mode="normal" in2="BackgroundImageFix" result="effect1_dropShadow_1004_942"/>
<feBlend mode="normal" in="SourceGraphic" in2="effect1_dropShadow_1004_942" result="shape"/>
</filter>
</defs>
</svg>
