<?xml version="1.0" ?><svg id="Privacy" style="enable-background:new 0 0 32 32;" version="1.1" viewBox="0 0 32 32" xml:space="preserve" xmlns="http://www.w3.org/2000/svg" xmlns:xlink="http://www.w3.org/1999/xlink"><style type="text/css">
	.st0{fill:#16F293;}
	.st1{fill:#FFCE69;}
</style><g><path class="st0" d="M28.997,5.814c-5.576-0.242-9.87-2.133-12.489-3.676c-0.313-0.185-0.702-0.184-1.016,0   c-3.698,2.179-8.15,3.485-12.536,3.678C2.421,5.84,2,6.308,2,6.843c0,9.462,5.044,18.067,13.494,23.02   C15.65,29.954,15.825,30,16,30s0.35-0.046,0.506-0.138C24.955,24.91,30,16.305,30,6.843V6.815C30,6.28,29.532,5.837,28.997,5.814z    M18.5,16.545v2.347c0,1.379-1.121,2.5-2.5,2.5c-1.378,0-2.5-1.121-2.5-2.5v-2.348c-0.873-0.891-1.21-2.183-0.862-3.423   c0.323-1.152,1.28-2.092,2.437-2.394c1.083-0.281,2.198-0.06,3.064,0.609c0.865,0.668,1.361,1.679,1.361,2.771   C19.5,15.031,19.141,15.895,18.5,16.545z"/><path class="st1" d="M18.139,11.336c-0.866-0.668-1.981-0.89-3.064-0.609c-1.157,0.302-2.114,1.242-2.437,2.394   c-0.348,1.241-0.01,2.533,0.862,3.423v2.348c0,1.379,1.122,2.5,2.5,2.5c1.379,0,2.5-1.121,2.5-2.5v-2.347   c0.641-0.65,1-1.515,1-2.438C19.5,13.015,19.004,12.004,18.139,11.336z"/></g></svg>